<svg width="42" height="58" viewBox="0 0 42 58" fill="none" xmlns="http://www.w3.org/2000/svg">
<path d="M23.584 0.0201984C22.4469 0.135179 21.6197 0.630236 21.1151 1.49259C21.0352 1.62993 20.965 1.74172 20.9586 1.74172C20.9554 1.74172 20.8276 1.64909 20.6807 1.53731C19.7417 0.831453 18.4514 0.460959 17.2568 0.563164C16.5063 0.627042 15.8803 0.805901 15.1488 1.17001C14.5931 1.44468 14.2003 1.72255 13.7499 2.15693C13.1239 2.75738 12.6576 3.4824 12.4021 4.23936C12.1274 5.0602 12.1306 5.93852 12.4149 6.78491C12.7183 7.69198 13.2357 8.2605 14.0949 8.63419C14.2545 8.70445 15.6184 9.18354 15.6567 9.18354C15.6567 9.18354 15.6599 9.8351 15.6599 10.6272C15.6631 13.6199 15.8803 16.0089 16.3466 18.1584C16.4328 18.5545 16.5318 19.0847 16.5701 19.3402C16.6532 19.9151 16.6755 19.9886 16.8225 20.1482C17.2377 20.6114 17.9787 20.4102 18.1032 19.8001C18.1352 19.6468 18.132 19.5446 18.0745 19.1358C18.0361 18.8707 17.9499 18.4044 17.8796 18.101C17.4708 16.3092 17.2664 14.4279 17.177 11.5215C17.1482 10.6527 17.1482 10.2854 17.1834 9.76483C17.2472 8.76194 17.2409 8.62141 17.1387 8.44575C16.9247 8.08164 16.634 7.91875 15.5161 7.53867C14.3983 7.1554 14.1619 7.00529 13.9479 6.55175C13.7755 6.18445 13.718 5.87464 13.7339 5.40194C13.7467 5.03464 13.7627 4.94521 13.8521 4.68012C14.0949 3.97107 14.673 3.24286 15.3564 2.78932C16.3721 2.1186 17.4772 1.911 18.5536 2.18248C19.4287 2.40605 20.01 2.81807 20.4156 3.50795C20.5114 3.66765 20.636 3.84651 20.6967 3.904C21.048 4.24255 21.6548 4.14993 21.8688 3.72514C21.9008 3.66126 21.987 3.40894 22.0605 3.16301C22.1339 2.91708 22.2585 2.58491 22.3352 2.42522C22.6418 1.79282 23.1496 1.52134 24.0279 1.52134C24.6156 1.52134 25.0148 1.64909 25.347 1.94932C25.561 2.14096 25.9028 2.65518 26.0561 3.0129C26.2445 3.45046 26.286 3.69001 26.2764 4.26491C26.2605 5.10172 26.2637 5.16559 26.3339 5.3189C26.4617 5.60955 26.7076 5.76286 27.0302 5.76605C27.1931 5.76605 27.2538 5.75008 27.3975 5.66065C27.5636 5.56483 27.5955 5.52012 27.9245 4.97396C28.3557 4.25852 28.5825 3.94871 28.9178 3.61335C29.3777 3.15343 29.761 2.98415 30.3359 2.98096C31.4889 2.98096 32.4822 3.69639 32.6387 4.6386C32.7313 5.20073 32.4982 5.98962 31.9776 6.87434C31.3707 7.90917 30.4764 9.07495 29.7323 9.79997C29.3809 10.1417 29.3426 10.1928 29.2947 10.3589C29.2148 10.6272 29.2532 11.068 29.5215 12.9524C29.579 13.3835 29.662 13.9648 29.6971 14.2459C29.8089 15.0923 30.0772 16.6765 30.1762 17.0565C30.272 17.4462 30.3551 17.6027 30.5531 17.7816C30.7894 17.9956 31.211 18.0083 31.3644 17.8071C31.4346 17.7081 31.524 17.3152 31.5272 17.0565C31.5304 16.9511 31.5081 16.686 31.4793 16.4657C31.4474 16.2453 31.3931 15.763 31.358 15.3957C31.3228 15.0252 31.2078 14.0926 31.0993 13.3197C30.9939 12.5467 30.8789 11.6876 30.8437 11.4065L30.7799 10.8987L31.0801 10.5921C32.0127 9.63388 33.2583 7.85168 33.6991 6.8424C34.0153 6.12058 34.1303 5.65426 34.159 5.02826C34.175 4.65776 34.1686 4.54917 34.1079 4.2713C33.9482 3.52712 33.5873 2.92985 32.9837 2.41883C32.0383 1.61396 30.6457 1.27221 29.4895 1.56605C28.9018 1.71297 28.3461 2.04195 27.8415 2.54339L27.5955 2.78293L27.4806 2.49229C27.356 2.18248 27.1069 1.73533 26.8673 1.39997C26.4777 0.857004 25.9922 0.464153 25.4333 0.240579C24.9478 0.0489437 24.1876 -0.0436798 23.584 0.0201984Z" fill="#00170A"/>
<path d="M39.1191 20.6083C38.3749 20.6626 38.0587 20.6914 37.7457 20.7329C34.4241 21.1577 31.6166 22.3235 28.691 24.4953C27.5028 25.38 27.0078 25.8016 24.4271 28.1396C18.579 33.4383 16.0016 35.4089 12.2902 37.4275C11.1436 38.0471 9.17297 39.0021 7.98164 39.5099C7.3205 39.791 6.96598 39.9635 6.20582 40.3723C5.55746 40.7204 5.26681 40.8801 4.08187 41.5508C2.89693 42.2216 1.45328 42.8476 0.351378 43.167C0.156549 43.2276 -0.00314682 43.2756 4.70904e-05 43.2819C0.0128227 43.2947 1.84613 44.0038 2.24537 44.1507C2.6478 44.2976 3.06621 44.4062 4.20963 44.6553C6.49966 45.1536 9.06118 45.3676 11.693 45.2781C15.235 45.16 17.6017 44.748 20.3197 43.777C23.1815 42.7518 25.5769 41.4678 27.4326 39.9699C29.4511 38.3378 31.4601 35.8018 33.0411 32.8826C33.5362 31.9659 33.7661 31.4453 34.6317 29.2894C35.625 26.8173 35.906 26.2232 36.5863 25.1916C37.3689 24.0003 38.26 23.0996 39.4034 22.3394C39.6365 22.1829 39.8218 22.0552 39.8122 22.0552C39.7515 22.0552 38.5059 22.6301 37.9533 22.9143C36.8067 23.502 36.0466 23.9715 34.4879 25.0575C33.2679 25.9039 32.8111 26.2584 32.1724 26.8429C32.0158 26.9898 31.6997 27.2581 31.4761 27.4433C30.9906 27.8394 28.6016 29.8739 28.0522 30.3562C26.7363 31.5156 25.8548 32.3715 25.133 33.186C24.9573 33.384 24.9637 33.3744 25.4013 32.7069C25.9155 31.9212 26.6341 30.9822 27.1228 30.4552C28.2566 29.2351 29.5533 27.8649 29.6428 27.7883C29.7418 27.7052 31.0641 26.466 32.5013 25.1118C33.1657 24.4858 33.2743 24.4027 34.6476 23.4861C36.0306 22.563 36.0498 22.5534 37.4902 22.0137C38.6177 21.5953 39.7866 21.2088 40.3168 21.081C40.5628 21.0235 41.0642 20.9181 41.4347 20.8543C42.2012 20.7137 42.2012 20.7105 41.3549 20.6467C40.8502 20.6115 39.4193 20.5828 39.1191 20.6083Z" fill="#00461E"/>
<path d="M26.9822 21.7006C25.8356 21.8603 24.8264 22.1062 23.2198 22.6172C19.023 23.9523 15.679 25.6355 12.8492 27.8329C11.2011 29.1137 10.0353 30.1677 7.52811 32.6461C5.44248 34.7062 5.20613 34.917 3.05982 36.6545C1.95153 37.5488 1.61937 37.8458 1.75032 37.8171C1.79503 37.8075 2.37632 37.6989 3.04385 37.5775C5.57343 37.1144 6.96279 36.7695 9.14423 36.0636C9.90758 35.8177 10.0545 35.7602 10.7731 35.4185C12.8619 34.4252 15.0306 33.154 16.5062 32.0585C17.7199 31.1578 18.6589 30.3337 21.2013 27.9319C24.9349 24.409 25.628 23.8118 27.2186 22.761C27.8638 22.3362 28.1672 22.1541 28.7038 21.8795C28.9241 21.7645 28.988 21.7198 28.9529 21.6974C28.9273 21.6846 28.5696 21.6655 28.1576 21.6559C27.5444 21.6463 27.3368 21.6527 26.9822 21.7006Z" fill="#00461E"/>
<path d="M32.0446 40.615C31.9392 40.631 31.8498 40.6566 31.8434 40.6757C31.837 40.6917 31.7795 40.7141 31.7156 40.7268C31.623 40.746 31.5367 40.8099 31.3355 41.0175C31.1886 41.1644 31.0704 41.2985 31.0704 41.3209C31.0704 41.3401 31.0321 41.4039 30.9874 41.4646C30.9427 41.5253 30.9107 41.5828 30.9235 41.5924C30.9331 41.602 30.9139 41.6626 30.882 41.7265C30.8469 41.7904 30.8213 41.8511 30.8181 41.8671C30.8181 41.8798 30.7926 41.9437 30.767 42.0076C30.7415 42.0715 30.7255 42.129 30.7319 42.1385C30.7415 42.1449 30.7287 42.1992 30.7063 42.2567C30.6265 42.4452 30.5818 43.6365 30.6488 43.7674C30.6648 43.7962 30.6872 43.8952 30.6999 43.9878C30.7127 44.0772 30.7415 44.1922 30.767 44.2433C30.7926 44.2912 30.8149 44.3711 30.8149 44.4222C30.8149 44.5084 31.08 45.0131 31.1886 45.1312C31.4122 45.3804 31.7348 45.5848 31.9456 45.6103C31.9935 45.6199 32.0605 45.6327 32.0925 45.6423C32.1947 45.6742 32.578 45.5624 32.7025 45.4634C32.7664 45.4123 32.8335 45.3708 32.8463 45.3708C32.8846 45.3708 33.1145 45.1504 33.1145 45.1185C33.1145 45.1025 33.1593 45.045 33.2167 44.9907C33.271 44.9364 33.3062 44.8917 33.2934 44.8917C33.2806 44.8917 33.2998 44.8534 33.3349 44.8087C33.3732 44.7607 33.402 44.6937 33.402 44.6553C33.402 44.617 33.418 44.5691 33.4339 44.5531C33.4691 44.518 33.5681 44.2657 33.6447 44.0198C33.6703 43.9335 33.699 43.7611 33.7054 43.6365C33.715 43.5087 33.7278 43.3011 33.7342 43.1702C33.7565 42.8572 33.6767 42.1673 33.6032 42.0331C33.584 41.998 33.5585 41.9118 33.5489 41.8383C33.5074 41.586 33.2966 41.2315 33.0539 41.0015C32.8111 40.7684 32.6386 40.6566 32.4885 40.6342C32.4215 40.6214 32.3352 40.6055 32.3001 40.5991C32.265 40.5927 32.15 40.5991 32.0446 40.615Z" fill="#00170A"/>
<path d="M24.6123 47.718C24.1364 47.8074 23.7563 48.015 23.5934 48.2673C23.2006 48.8933 23.8522 49.5321 25.0083 49.6503C25.9122 49.7429 26.7299 49.4714 26.963 49.0051C27.2217 48.4877 26.8193 47.9831 25.9697 47.7627C25.6344 47.6765 24.9541 47.6541 24.6123 47.718Z" fill="#00170A"/>
<path d="M29.2179 49.8358C28.988 49.8646 28.8794 49.9381 28.8379 50.0882C28.7868 50.2702 28.7963 50.366 28.8698 50.4619C28.956 50.5704 29.1061 50.6471 29.8344 50.9409C30.5147 51.2156 30.6137 51.2731 30.8213 51.4935C31.1279 51.8257 31.262 52.2696 31.163 52.6369C31.1183 52.803 30.8532 53.0617 30.6137 53.1735C30.3134 53.3172 30.0675 53.3683 29.681 53.3651C29.2403 53.3619 28.9401 53.2789 28.5057 53.0362C28.1735 52.8541 28.0234 52.72 27.7104 52.3399C27.2281 51.749 26.9119 51.5222 26.5766 51.5222C26.3658 51.5222 26.2604 51.5925 26.1518 51.8097C26.0528 52.0077 26.0432 52.3079 26.1326 52.5379C26.1645 52.6241 26.2987 52.8349 26.4296 53.0106C26.848 53.5631 26.9822 53.8282 27.0493 54.2435C27.0748 54.4031 27.0748 54.4926 27.0493 54.5948C27.0045 54.7577 26.8449 54.9461 26.7043 55.0036C26.4648 55.1058 26.0336 55.0164 25.6599 54.7928C25.101 54.4542 24.4239 53.4418 24.2993 52.7519C24.2482 52.4644 24.2131 52.4069 24.031 52.3175C23.7595 52.1802 23.5296 52.2153 23.3922 52.4165C23.3156 52.5283 23.2677 52.6752 22.9738 53.627C22.7598 54.3265 22.4564 54.8758 22.0987 55.2176C21.428 55.8564 20.786 55.5689 20.5433 54.5213C20.4538 54.1412 20.4634 53.3012 20.5592 52.8477C20.7445 51.9726 21.1501 51.0911 21.6324 50.513C21.7122 50.4171 21.7729 50.3149 21.7697 50.2894C21.7633 50.2638 21.7218 50.2223 21.6771 50.1968C21.3449 50.0115 20.5113 50.8164 19.9907 51.8225C19.1922 53.3587 19.106 54.9397 19.7576 56.0512C19.8981 56.2908 20.2654 56.6581 20.5049 56.7986C20.9744 57.0765 21.5909 57.1627 22.1434 57.0317C22.9674 56.8337 23.7436 56.2013 24.2737 55.2942C24.344 55.1729 24.4111 55.0866 24.4239 55.1026C24.4366 55.1154 24.5229 55.2336 24.6155 55.3613C24.9477 55.8181 25.4204 56.1662 25.9729 56.3674C26.1869 56.4473 26.2955 56.4664 26.5989 56.476C27.0301 56.4952 27.2569 56.4473 27.605 56.2684C27.9244 56.1055 28.3364 55.6871 28.4929 55.3677C28.6207 55.1058 28.7388 54.6938 28.7388 54.5022C28.7388 54.4351 28.7516 54.3712 28.7708 54.3616C28.7868 54.352 28.857 54.3712 28.9273 54.4063C28.9976 54.4447 29.1796 54.5117 29.3361 54.5596C29.5948 54.6395 29.6587 54.6459 30.1761 54.6459C30.6584 54.6459 30.7702 54.6363 30.9874 54.5756C31.7315 54.368 32.3224 53.9081 32.6163 53.3108C32.8015 52.9339 32.843 52.7295 32.8398 52.2057C32.8398 51.7969 32.8271 51.7107 32.7504 51.4552C32.6131 51.0016 32.4598 50.7206 32.2202 50.4778C31.8753 50.1329 31.6677 50.0435 30.8628 49.9029C30.4572 49.8327 29.5501 49.7975 29.2179 49.8358Z" fill="#00170A"/>
</svg>
