<svg width="145" height="181" viewBox="0 0 145 181" fill="none" xmlns="http://www.w3.org/2000/svg">
<path d="M70.7671 9.92929C68.2619 10.1826 66.4392 11.2734 65.3273 13.1735C65.1514 13.4761 64.9966 13.7224 64.9825 13.7224C64.9754 13.7224 64.694 13.5183 64.3702 13.272C62.3013 11.7168 59.4582 10.9004 56.8262 11.1256C55.1725 11.2664 53.7932 11.6605 52.1816 12.4627C50.9571 13.0679 50.0915 13.6802 49.0993 14.6372C47.72 15.9603 46.6925 17.5577 46.1295 19.2256C45.5243 21.0341 45.5314 22.9694 46.1577 24.8343C46.8262 26.8329 47.9663 28.0855 49.8593 28.9089C50.2112 29.0637 53.2161 30.1193 53.3006 30.1193C53.3006 30.1193 53.3076 31.5549 53.3076 33.3002C53.3146 39.8941 53.7932 45.158 54.8206 49.8941C55.0106 50.7668 55.2288 51.935 55.3132 52.4979C55.4962 53.7647 55.5455 53.9265 55.8692 54.2784C56.784 55.2988 58.4167 54.8554 58.6911 53.5113C58.7615 53.1735 58.7545 52.9483 58.6278 52.0475C58.5434 51.4635 58.3533 50.436 58.1985 49.7675C57.2977 45.8195 56.8474 41.6746 56.6503 35.2706C56.587 33.3565 56.587 32.5472 56.6644 31.4001C56.8051 29.1904 56.7911 28.8807 56.5659 28.4937C56.0944 27.6914 55.454 27.3325 52.9909 26.4951C50.5279 25.6506 50.0071 25.3199 49.5356 24.3206C49.1556 23.5113 49.0289 22.8287 49.0641 21.7871C49.0922 20.9779 49.1274 20.7808 49.3245 20.1967C49.8593 18.6344 51.1331 17.0299 52.6391 16.0306C54.8769 14.5528 57.3118 14.0954 59.6834 14.6935C61.6116 15.1862 62.8924 16.094 63.7861 17.614C63.9973 17.9659 64.2717 18.36 64.4054 18.4866C65.1795 19.2326 66.5166 19.0285 66.9881 18.0926C67.0585 17.9518 67.2485 17.3959 67.4104 16.854C67.5722 16.3121 67.8467 15.5802 68.0156 15.2284C68.6911 13.835 69.8101 13.2368 71.7453 13.2368C73.0402 13.2368 73.9199 13.5183 74.6517 14.1798C75.1232 14.6021 75.8762 15.7351 76.214 16.5232C76.6292 17.4874 76.7207 18.0151 76.6996 19.2819C76.6644 21.1256 76.6714 21.2664 76.8263 21.6042C77.1078 22.2446 77.6496 22.5824 78.3604 22.5894C78.7193 22.5894 78.853 22.5542 79.1697 22.3572C79.5356 22.146 79.606 22.0475 80.3308 20.8441C81.2809 19.2678 81.7805 18.5852 82.5194 17.8463C83.5328 16.8329 84.3773 16.4599 85.644 16.4529C88.1845 16.4529 90.3731 18.0292 90.7179 20.1052C90.922 21.3438 90.4083 23.082 89.2612 25.0313C87.9241 27.3114 85.9537 29.88 84.314 31.4775C83.5399 32.2305 83.4554 32.3431 83.3498 32.709C83.1739 33.3002 83.2584 34.2713 83.8495 38.4233C83.9762 39.3734 84.1591 40.6542 84.2365 41.2734C84.4829 43.1383 85.074 46.6288 85.2921 47.4663C85.5033 48.3248 85.6862 48.6696 86.1225 49.0637C86.6433 49.5352 87.5722 49.5634 87.91 49.12C88.0648 48.9019 88.2619 48.0363 88.2689 47.4663C88.276 47.234 88.2267 46.6499 88.1634 46.1644C88.093 45.6788 87.9734 44.6162 87.8959 43.8069C87.8185 42.9905 87.5652 40.9356 87.3259 39.2326C87.0937 37.5296 86.8404 35.6366 86.7629 35.0173L86.6222 33.8983L87.2837 33.2228C89.3386 31.1116 92.0831 27.1848 93.0543 24.961C93.751 23.3705 94.0043 22.3431 94.0677 20.9638C94.1028 20.1474 94.0888 19.9082 93.9551 19.2959C93.6032 17.6562 92.808 16.3403 91.4779 15.2143C89.3949 13.4409 86.3266 12.6879 83.7791 13.3353C82.4843 13.6591 81.2598 14.3839 80.1479 15.4888L79.606 16.0166L79.3527 15.3762C79.0782 14.6935 78.5293 13.7083 78.0015 12.9694C77.1429 11.7731 76.0733 10.9075 74.8417 10.4149C73.7721 9.99262 72.0972 9.78854 70.7671 9.92929Z" fill="#00170A"/>
<path d="M104.996 55.292C103.357 55.4117 102.66 55.475 101.97 55.5665C94.6516 56.5025 88.4658 59.0711 82.0197 63.8564C79.4018 65.8058 78.311 66.7347 72.6249 71.886C59.7396 83.5609 54.0605 87.9029 45.8831 92.3505C43.3567 93.7157 39.0147 95.8199 36.3898 96.9388C34.9331 97.5581 34.1519 97.9381 32.4771 98.8389C31.0485 99.606 30.4081 99.9578 27.7972 101.436C25.1864 102.913 22.0055 104.293 19.5777 104.997C19.1484 105.13 18.7965 105.236 18.8036 105.25C18.8317 105.278 22.8711 106.84 23.7508 107.164C24.6375 107.488 25.5594 107.727 28.0787 108.276C33.1245 109.374 38.7684 109.845 44.5671 109.648C52.3715 109.388 57.5862 108.48 63.5749 106.341C69.8803 104.082 75.1583 101.253 79.247 97.9522C83.6945 94.3561 88.121 88.7685 91.6045 82.3364C92.6953 80.3167 93.202 79.1696 95.1091 74.4194C97.2977 68.9726 97.9169 67.6636 99.4159 65.3906C101.14 62.7657 103.103 60.7811 105.623 59.1063C106.137 58.7614 106.545 58.4799 106.524 58.4799C106.39 58.4799 103.645 59.7467 102.428 60.373C99.9015 61.6678 98.2266 62.7023 94.7924 65.095C92.1041 66.9599 91.0978 67.741 89.6903 69.0289C89.3455 69.3526 88.6488 69.9437 88.1562 70.3519C87.0865 71.2245 81.8226 75.7073 80.6122 76.7699C77.7128 79.3244 75.7705 81.2104 74.1801 83.005C73.7931 83.4413 73.8071 83.4202 74.7713 81.9494C75.9043 80.2182 77.4877 78.1492 78.5644 76.9881C81.0626 74.2998 83.9197 71.2808 84.1168 71.1119C84.3349 70.9289 87.2484 68.1985 90.4152 65.2146C91.8789 63.8353 92.1182 63.6524 95.1442 61.6327C98.1914 59.5989 98.2336 59.5778 101.407 58.3885C103.892 57.4666 106.467 56.6151 107.635 56.3336C108.177 56.2069 109.282 55.9747 110.099 55.8339C111.787 55.5243 111.787 55.5172 109.923 55.3765C108.811 55.2991 105.658 55.2357 104.996 55.292Z" fill="#00461E"/>
<path d="M78.2547 57.6986C75.7283 58.0505 73.5045 58.5924 69.9648 59.7183C60.7178 62.6599 53.3497 66.3686 47.1146 71.2103C43.4834 74.0322 40.9148 76.3545 35.3905 81.8155C30.7951 86.3545 30.2744 86.819 25.5453 90.6473C23.1034 92.6177 22.3715 93.2722 22.66 93.2089C22.7585 93.1878 24.0393 92.9485 25.5101 92.6811C31.0837 91.6607 34.1449 90.9006 38.9514 89.3454C40.6333 88.8035 40.957 88.6768 42.5404 87.9239C47.1428 85.7353 51.9211 82.9344 55.1724 80.5206C57.8465 78.5361 59.9155 76.7205 65.5172 71.4284C73.7438 63.6663 75.2709 62.3503 78.7755 60.035C80.197 59.0991 80.8656 58.6979 82.0478 58.0927C82.5334 57.8394 82.6741 57.7409 82.5967 57.6916C82.5404 57.6634 81.7523 57.6212 80.8444 57.6001C79.4933 57.579 79.0359 57.5931 78.2547 57.6986Z" fill="#00461E"/>
<path d="M89.4088 99.3737C89.1766 99.4089 88.9795 99.4652 88.9654 99.5074C88.9514 99.5426 88.8247 99.5918 88.684 99.62C88.4799 99.6622 88.2899 99.803 87.8465 100.26C87.5228 100.584 87.2624 100.88 87.2624 100.929C87.2624 100.971 87.178 101.112 87.0794 101.246C86.9809 101.379 86.9106 101.506 86.9387 101.527C86.9598 101.548 86.9176 101.682 86.8472 101.823C86.7698 101.963 86.7135 102.097 86.7065 102.132C86.7065 102.16 86.6502 102.301 86.5939 102.442C86.5376 102.583 86.5024 102.709 86.5165 102.73C86.5376 102.745 86.5094 102.864 86.4602 102.991C86.2842 103.406 86.1857 106.031 86.3335 106.319C86.3687 106.383 86.4179 106.601 86.4461 106.805C86.4742 107.002 86.5376 107.255 86.5939 107.368C86.6502 107.474 86.6994 107.65 86.6994 107.762C86.6994 107.952 87.2835 109.064 87.5228 109.324C88.0154 109.873 88.7262 110.324 89.1906 110.38C89.2962 110.401 89.444 110.429 89.5144 110.45C89.7396 110.521 90.584 110.274 90.8585 110.056C90.9992 109.944 91.147 109.852 91.1752 109.852C91.2596 109.852 91.7663 109.367 91.7663 109.296C91.7663 109.261 91.8648 109.134 91.9915 109.015C92.1111 108.895 92.1885 108.797 92.1604 108.797C92.1322 108.797 92.1745 108.712 92.2519 108.614C92.3363 108.508 92.3997 108.36 92.3997 108.276C92.3997 108.191 92.4348 108.086 92.47 108.051C92.5474 107.973 92.7656 107.417 92.9345 106.875C92.9908 106.685 93.0541 106.305 93.0682 106.031C93.0893 105.749 93.1175 105.292 93.1315 105.004C93.1808 104.314 93.0049 102.794 92.843 102.498C92.8008 102.421 92.7445 102.231 92.7234 102.069C92.6319 101.513 92.1674 100.732 91.6326 100.225C91.0978 99.7115 90.7177 99.4652 90.387 99.4159C90.2392 99.3878 90.0492 99.3526 89.9718 99.3385C89.8944 99.3244 89.641 99.3385 89.4088 99.3737Z" fill="#00170A"/>
<path d="M73.0329 115.024C71.9844 115.221 71.1469 115.679 70.788 116.235C69.9224 117.614 71.358 119.022 73.9055 119.282C75.8971 119.486 77.6987 118.888 78.2124 117.86C78.7824 116.72 77.8957 115.608 76.0238 115.123C75.2849 114.933 73.7859 114.884 73.0329 115.024Z" fill="#00170A"/>
<path d="M83.1808 119.691C82.6741 119.754 82.4348 119.916 82.3433 120.247C82.2307 120.648 82.2518 120.859 82.4137 121.07C82.6037 121.309 82.9344 121.478 84.539 122.126C86.0379 122.731 86.2561 122.857 86.7135 123.343C87.3891 124.075 87.6846 125.053 87.4665 125.862C87.368 126.228 86.7839 126.798 86.2561 127.045C85.5945 127.361 85.0527 127.474 84.2012 127.467C83.23 127.46 82.5685 127.277 81.6114 126.742C80.8796 126.341 80.5488 126.045 79.8591 125.208C78.7965 123.906 78.0998 123.406 77.3609 123.406C76.8964 123.406 76.6642 123.561 76.4249 124.04C76.2068 124.476 76.1857 125.138 76.3827 125.644C76.4531 125.834 76.7487 126.299 77.0372 126.686C77.9591 127.903 78.2546 128.487 78.4024 129.402C78.4587 129.754 78.4587 129.951 78.4024 130.176C78.3039 130.535 77.952 130.95 77.6424 131.077C77.1146 131.302 76.1646 131.105 75.3412 130.613C74.1097 129.867 72.6178 127.636 72.3433 126.116C72.2307 125.482 72.1533 125.356 71.7522 125.159C71.154 124.856 70.6473 124.933 70.3447 125.377C70.1758 125.623 70.0703 125.947 69.4228 128.044C68.9513 129.585 68.2828 130.795 67.4946 131.548C66.0168 132.956 64.6023 132.323 64.0674 130.014C63.8704 129.177 63.8915 127.326 64.1026 126.327C64.5108 124.399 65.4045 122.456 66.4672 121.183C66.6431 120.971 66.7768 120.746 66.7698 120.69C66.7557 120.634 66.6642 120.542 66.5657 120.486C65.8338 120.078 63.9971 121.851 62.85 124.068C61.0907 127.453 60.9006 130.936 62.3363 133.385C62.6459 133.913 63.4552 134.722 63.983 135.032C65.0175 135.644 66.3757 135.834 67.5931 135.546C69.4087 135.109 71.1188 133.716 72.287 131.717C72.4418 131.45 72.5896 131.26 72.6178 131.295C72.6459 131.323 72.8359 131.584 73.04 131.865C73.7719 132.871 74.8134 133.639 76.0309 134.082C76.5024 134.258 76.7416 134.3 77.4102 134.321C78.3602 134.363 78.8598 134.258 79.6269 133.864C80.3306 133.505 81.2385 132.583 81.5833 131.879C81.8648 131.302 82.1252 130.394 82.1252 129.972C82.1252 129.824 82.1533 129.684 82.1955 129.662C82.2307 129.641 82.3855 129.684 82.5404 129.761C82.6952 129.845 83.0963 129.993 83.4411 130.099C84.0112 130.275 84.1519 130.289 85.2919 130.289C86.3546 130.289 86.6009 130.268 87.0794 130.134C88.7191 129.677 90.021 128.663 90.6684 127.347C91.0766 126.517 91.1681 126.066 91.1611 124.912C91.1611 124.012 91.1329 123.822 90.964 123.259C90.6614 122.259 90.3236 121.64 89.7958 121.105C89.0358 120.345 88.5784 120.148 86.805 119.838C85.9112 119.684 83.9126 119.606 83.1808 119.691Z" fill="#00170A"/>
<path d="M34.3276 163.705C34.0647 164.293 33.7323 164.78 33.3302 165.166C32.9282 165.537 32.503 165.839 32.0545 166.071C31.6061 166.287 31.1499 166.442 30.686 166.535C30.2376 166.628 29.8278 166.674 29.4567 166.674C28.9 166.674 28.3047 166.543 27.6707 166.28C27.0522 166.001 26.48 165.607 25.9543 165.097C25.444 164.571 25.0187 163.922 24.6785 163.148C24.3383 162.375 24.1683 161.478 24.1683 160.458C24.1683 159.731 24.2842 158.981 24.5162 158.208C24.7481 157.435 25.0883 156.731 25.5368 156.097C26.0006 155.463 26.5728 154.945 27.2532 154.543C27.9336 154.126 28.7222 153.917 29.6191 153.917C30.0056 153.917 30.3999 153.963 30.802 154.056C31.204 154.149 31.5829 154.288 31.9385 154.473C32.3097 154.644 32.6499 154.86 32.9591 155.123C33.2684 155.386 33.5235 155.68 33.7245 156.004C33.8173 156.19 33.8637 156.352 33.8637 156.491C33.8637 156.723 33.7632 156.924 33.5622 157.094C33.3612 157.249 33.1524 157.326 32.9359 157.326C32.7504 157.326 32.6112 157.257 32.5184 157.118C32.1164 156.623 31.6679 156.267 31.1731 156.051C30.6783 155.834 30.1912 155.726 29.7118 155.726C29.1242 155.726 28.5985 155.873 28.1346 156.167C27.6861 156.46 27.2996 156.839 26.9748 157.303C26.6656 157.767 26.4259 158.277 26.2558 158.834C26.1012 159.391 26.0238 159.932 26.0238 160.458C26.0238 161.169 26.1321 161.803 26.3486 162.36C26.5651 162.916 26.8434 163.388 27.1836 163.775C27.5392 164.161 27.9336 164.455 28.3665 164.656C28.7995 164.857 29.2325 164.958 29.6654 164.958C30.4695 164.958 31.1654 164.741 31.753 164.308C32.3561 163.86 32.7658 163.318 32.9823 162.684C33.0906 162.499 33.2916 162.406 33.5854 162.406C33.7864 162.406 33.9642 162.476 34.1189 162.615C34.289 162.754 34.374 162.986 34.374 163.311C34.374 163.373 34.3663 163.434 34.3508 163.496C34.3508 163.558 34.3431 163.628 34.3276 163.705ZM36.4152 156.051C36.3069 155.927 36.2528 155.772 36.2528 155.587C36.2528 155.355 36.3378 155.154 36.5079 154.984C36.678 154.798 36.8945 154.705 37.1574 154.705C37.3893 154.705 37.5981 154.798 37.7837 154.984C37.9847 155.169 38.1625 155.401 38.3171 155.68C38.4872 155.958 38.6264 156.259 38.7346 156.584C38.8584 156.909 38.9511 157.21 39.013 157.489C39.0903 157.844 39.1444 158.254 39.1753 158.718C39.2063 159.182 39.2449 159.677 39.2913 160.203L41.4484 160.133C41.8505 160.118 42.2525 160.11 42.6546 160.11C43.0566 160.094 43.4355 160.071 43.7911 160.04C43.7447 159.437 43.7061 158.904 43.6752 158.44C43.6442 157.96 43.5901 157.512 43.5128 157.094C43.4509 156.662 43.3582 156.221 43.2345 155.772C43.1262 155.324 42.9561 154.814 42.7242 154.242C42.6778 154.149 42.6546 154.048 42.6546 153.94C42.6546 153.677 42.7551 153.468 42.9561 153.314C43.1571 153.144 43.3814 153.059 43.6288 153.059C43.9535 153.059 44.2164 153.213 44.4174 153.522C44.6339 153.832 44.7962 154.187 44.9045 154.589C45.0282 154.976 45.1132 155.347 45.1596 155.703C45.2215 156.043 45.2601 156.252 45.2756 156.329C45.322 156.561 45.3607 156.87 45.3916 157.257C45.438 157.643 45.4689 158.076 45.4844 158.556C45.5153 159.035 45.5385 159.545 45.5539 160.087C45.5694 160.612 45.5771 161.154 45.5771 161.71C45.5771 162.592 45.5617 163.45 45.5308 164.285C45.5153 165.12 45.4766 165.854 45.4148 166.488C45.3838 166.751 45.2833 166.937 45.1132 167.045C44.9586 167.169 44.7962 167.231 44.6261 167.231C44.4097 167.231 44.2009 167.169 43.9999 167.045C43.7989 166.921 43.6984 166.736 43.6984 166.488C43.6984 165.777 43.7215 165.019 43.7679 164.215C43.8298 163.411 43.8607 162.584 43.8607 161.733C43.536 161.764 43.1649 161.788 42.7474 161.803C42.3453 161.803 41.9355 161.811 41.518 161.826L39.3145 161.896C39.3145 162.638 39.2913 163.38 39.2449 164.123C39.214 164.865 39.1676 165.545 39.1058 166.164C39.0748 166.427 38.9666 166.628 38.781 166.767C38.5955 166.921 38.3945 166.999 38.178 166.999C37.9615 166.999 37.7759 166.937 37.6213 166.813C37.4667 166.705 37.3893 166.535 37.3893 166.303C37.3893 165.514 37.4125 164.695 37.4589 163.844C37.5208 162.994 37.5517 162.151 37.5517 161.316C37.5517 160.697 37.5285 160.11 37.4821 159.553C37.4512 158.996 37.3739 158.478 37.2502 157.999L36.9718 157.118C36.9254 156.963 36.8481 156.801 36.7399 156.631C36.6471 156.445 36.5389 156.252 36.4152 156.051ZM55.0639 166.442C54.7855 166.457 54.4221 166.465 53.9737 166.465C53.5253 166.481 53.0227 166.488 52.466 166.488C51.9093 166.488 51.3217 166.481 50.7032 166.465C50.1001 166.45 49.5125 166.427 48.9404 166.396C48.9095 166.396 48.8785 166.403 48.8476 166.419C48.8322 166.419 48.809 166.419 48.778 166.419C48.5306 166.419 48.3219 166.349 48.1518 166.21C47.9971 166.071 47.9198 165.87 47.9198 165.607C47.9353 165.205 47.9508 164.741 47.9662 164.215C47.9971 163.674 48.0203 163.102 48.0358 162.499C48.0667 161.896 48.0822 161.277 48.0822 160.643C48.0977 159.994 48.1054 159.36 48.1054 158.741C48.1054 157.953 48.0899 157.218 48.059 156.538C48.0281 155.857 48.0126 155.27 48.0126 154.775C48.0126 154.558 48.0977 154.404 48.2677 154.311C48.4533 154.218 48.6543 154.172 48.8708 154.172C49.1337 154.172 49.443 154.187 49.7986 154.218C50.1543 154.249 50.5331 154.265 50.9352 154.265C51.2754 154.265 51.631 154.265 52.0021 154.265C52.3732 154.265 52.7289 154.265 53.0691 154.265C53.4247 154.249 53.7495 154.242 54.0433 154.242C54.3525 154.242 54.6154 154.242 54.8319 154.242C55.0175 154.319 55.1489 154.443 55.2262 154.613C55.319 154.767 55.3654 154.93 55.3654 155.1C55.3654 155.27 55.3113 155.432 55.203 155.587C55.0948 155.726 54.9711 155.819 54.8319 155.865C54.3989 155.881 53.9814 155.888 53.5794 155.888C53.1773 155.888 52.7676 155.888 52.35 155.888C51.948 155.888 51.5305 155.881 51.0975 155.865C50.68 155.85 50.2393 155.834 49.7754 155.819C49.7909 156.422 49.7986 157.056 49.7986 157.721C49.8141 158.37 49.8218 159.027 49.8218 159.692C49.8218 160.666 49.8063 161.61 49.7754 162.522C49.76 163.419 49.7445 164.2 49.729 164.865C50.1311 164.896 50.5872 164.919 51.0975 164.934C51.6233 164.934 52.1336 164.934 52.6284 164.934C53.1387 164.934 53.6103 164.934 54.0433 164.934C54.4917 164.919 54.8474 164.896 55.1102 164.865C55.3113 164.896 55.4582 164.988 55.5509 165.143C55.6592 165.298 55.7133 165.468 55.7133 165.653C55.7133 165.839 55.6515 166.017 55.5278 166.187C55.404 166.342 55.2494 166.427 55.0639 166.442ZM55.1102 161.061C54.8474 161.061 54.5458 161.061 54.2056 161.061C53.8809 161.061 53.5175 161.053 53.1155 161.038L51.0279 160.968C50.8888 160.968 50.7728 160.883 50.68 160.713C50.6027 160.543 50.564 160.365 50.564 160.179C50.564 159.978 50.6027 159.801 50.68 159.646C50.7728 159.476 50.9197 159.391 51.1207 159.391C51.863 159.422 52.5511 159.437 53.1851 159.437C53.8191 159.437 54.4608 159.437 55.1102 159.437C55.2958 159.468 55.4272 159.561 55.5046 159.715C55.5819 159.87 55.6205 160.04 55.6205 160.226C55.6205 160.411 55.5741 160.589 55.4814 160.759C55.3886 160.914 55.2649 161.014 55.1102 161.061ZM65.0377 161.478C64.8057 161.509 64.5196 161.532 64.1794 161.548C63.8547 161.563 63.5068 161.571 63.1357 161.571C62.7646 161.571 62.3934 161.571 62.0223 161.571C61.6667 161.556 61.3419 161.54 61.0481 161.525C60.909 161.525 60.793 161.44 60.7002 161.27C60.6229 161.084 60.5842 160.891 60.5842 160.69C60.5842 160.473 60.6229 160.28 60.7002 160.11C60.793 159.94 60.9399 159.855 61.1409 159.855C61.512 159.855 61.8522 159.862 62.1615 159.878C62.4862 159.893 62.8032 159.901 63.1125 159.901C63.4063 159.901 63.7078 159.901 64.0171 159.901C64.3263 159.886 64.6511 159.855 64.9913 159.808C65.1768 159.839 65.3083 159.947 65.3856 160.133C65.4784 160.303 65.5247 160.489 65.5247 160.69C65.5247 160.891 65.4784 161.076 65.3856 161.246C65.3083 161.401 65.1923 161.478 65.0377 161.478ZM64.2026 155.912C63.7851 155.927 63.3908 155.942 63.0197 155.958C62.664 155.958 62.3316 155.958 62.0223 155.958C61.7131 155.958 61.3729 155.958 61.0017 155.958C60.6461 155.942 60.2595 155.927 59.842 155.912C59.8575 156.499 59.8652 157.118 59.8652 157.767C59.8652 158.417 59.8652 159.066 59.8652 159.715C59.8652 160.303 59.8575 160.883 59.842 161.455C59.842 162.027 59.8343 162.576 59.8188 163.102C59.8188 163.628 59.8033 164.107 59.7724 164.54C59.757 164.973 59.7338 165.344 59.7028 165.653C59.6719 165.916 59.5714 166.11 59.4013 166.233C59.2467 166.357 59.0766 166.419 58.891 166.419C58.6281 166.419 58.4039 166.349 58.2184 166.21C58.0328 166.071 57.94 165.87 57.94 165.607C57.9555 165.205 57.9709 164.741 57.9864 164.215C58.0173 163.674 58.0405 163.102 58.056 162.499C58.0869 161.896 58.1024 161.277 58.1024 160.643C58.1178 159.994 58.1256 159.36 58.1256 158.741C58.1256 157.953 58.1101 157.218 58.0792 156.538C58.0483 155.857 58.0328 155.27 58.0328 154.775C58.0328 154.558 58.1256 154.404 58.3111 154.311C58.4967 154.218 58.7054 154.172 58.9374 154.172C59.2003 154.172 59.4863 154.187 59.7956 154.218C60.1203 154.249 60.4605 154.265 60.8162 154.265C61.4656 154.265 62.0842 154.265 62.6718 154.265C63.2594 154.249 63.7697 154.242 64.2026 154.242C64.3882 154.319 64.5196 154.443 64.597 154.613C64.6897 154.767 64.7361 154.937 64.7361 155.123C64.7361 155.308 64.682 155.479 64.5738 155.633C64.4655 155.772 64.3418 155.865 64.2026 155.912ZM76.9598 166.488C76.8361 166.272 76.6892 165.963 76.5191 165.561C76.3645 165.143 76.1944 164.671 76.0088 164.146C75.8233 163.62 75.63 163.056 75.429 162.452C75.2279 161.849 75.0347 161.231 74.8491 160.597L72.9239 154.381C72.893 154.288 72.8775 154.211 72.8775 154.149C72.8775 153.917 72.978 153.723 73.1791 153.569C73.3801 153.414 73.5888 153.337 73.8053 153.337C73.9754 153.337 74.1301 153.391 74.2692 153.499C74.4084 153.608 74.5166 153.778 74.594 154.01C74.7331 154.473 74.9264 155.123 75.1738 155.958C75.4212 156.777 75.6918 157.667 75.9856 158.625C76.2949 159.569 76.6119 160.527 76.9366 161.502C77.2614 162.46 77.5629 163.311 77.8412 164.053C78.0732 163.342 78.3206 162.522 78.5835 161.594C78.8618 160.666 79.1324 159.739 79.3953 158.811C79.6582 157.868 79.8979 156.978 80.1143 156.143C80.3308 155.293 80.5009 154.582 80.6246 154.01C80.671 153.778 80.7561 153.615 80.8798 153.522C81.0189 153.43 81.1736 153.383 81.3437 153.383C81.5911 153.383 81.8153 153.468 82.0163 153.638C82.2173 153.793 82.3179 153.994 82.3179 154.242C82.3179 154.473 82.2483 154.837 82.1091 155.332C81.9699 155.826 81.823 156.368 81.6684 156.955C81.4519 157.79 81.2045 158.695 80.9262 159.669C80.6633 160.643 80.3927 161.587 80.1143 162.499C79.836 163.396 79.5654 164.208 79.3025 164.934C79.0551 165.661 78.8464 166.195 78.6763 166.535C78.5989 166.705 78.4907 166.821 78.3515 166.883C78.2278 166.96 78.1041 167.006 77.9804 167.022C77.9031 167.022 77.8026 166.991 77.6789 166.929H77.6093C77.4856 166.929 77.3619 166.898 77.2382 166.836C77.1299 166.774 77.0372 166.659 76.9598 166.488ZM91.4798 166.442C91.2015 166.457 90.8381 166.465 90.3897 166.465C89.9412 166.481 89.4387 166.488 88.882 166.488C88.3253 166.488 87.7377 166.481 87.1192 166.465C86.5161 166.45 85.9285 166.427 85.3564 166.396C85.3255 166.396 85.2945 166.403 85.2636 166.419C85.2481 166.419 85.2249 166.419 85.194 166.419C84.9466 166.419 84.7379 166.349 84.5678 166.21C84.4131 166.071 84.3358 165.87 84.3358 165.607C84.3513 165.205 84.3667 164.741 84.3822 164.215C84.4131 163.674 84.4363 163.102 84.4518 162.499C84.4827 161.896 84.4982 161.277 84.4982 160.643C84.5136 159.994 84.5214 159.36 84.5214 158.741C84.5214 157.953 84.5059 157.218 84.475 156.538C84.4441 155.857 84.4286 155.27 84.4286 154.775C84.4286 154.558 84.5136 154.404 84.6837 154.311C84.8693 154.218 85.0703 154.172 85.2868 154.172C85.5497 154.172 85.8589 154.187 86.2146 154.218C86.5702 154.249 86.9491 154.265 87.3511 154.265C87.6913 154.265 88.047 154.265 88.4181 154.265C88.7892 154.265 89.1449 154.265 89.4851 154.265C89.8407 154.249 90.1655 154.242 90.4593 154.242C90.7685 154.242 91.0314 154.242 91.2479 154.242C91.4334 154.319 91.5649 154.443 91.6422 154.613C91.735 154.767 91.7814 154.93 91.7814 155.1C91.7814 155.27 91.7272 155.432 91.619 155.587C91.5108 155.726 91.3871 155.819 91.2479 155.865C90.8149 155.881 90.3974 155.888 89.9954 155.888C89.5933 155.888 89.1835 155.888 88.766 155.888C88.364 155.888 87.9465 155.881 87.5135 155.865C87.096 155.85 86.6553 155.834 86.1914 155.819C86.2069 156.422 86.2146 157.056 86.2146 157.721C86.2301 158.37 86.2378 159.027 86.2378 159.692C86.2378 160.666 86.2223 161.61 86.1914 162.522C86.1759 163.419 86.1605 164.2 86.145 164.865C86.5471 164.896 87.0032 164.919 87.5135 164.934C88.0393 164.934 88.5495 164.934 89.0444 164.934C89.5547 164.934 90.0263 164.934 90.4593 164.934C90.9077 164.919 91.2633 164.896 91.5262 164.865C91.7272 164.896 91.8741 164.988 91.9669 165.143C92.0752 165.298 92.1293 165.468 92.1293 165.653C92.1293 165.839 92.0674 166.017 91.9437 166.187C91.82 166.342 91.6654 166.427 91.4798 166.442ZM91.5262 161.061C91.2633 161.061 90.9618 161.061 90.6216 161.061C90.2969 161.061 89.9335 161.053 89.5315 161.038L87.4439 160.968C87.3048 160.968 87.1888 160.883 87.096 160.713C87.0187 160.543 86.98 160.365 86.98 160.179C86.98 159.978 87.0187 159.801 87.096 159.646C87.1888 159.476 87.3357 159.391 87.5367 159.391C88.2789 159.422 88.9671 159.437 89.601 159.437C90.235 159.437 90.8768 159.437 91.5262 159.437C91.7118 159.468 91.8432 159.561 91.9205 159.715C91.9979 159.87 92.0365 160.04 92.0365 160.226C92.0365 160.411 91.9901 160.589 91.8973 160.759C91.8046 160.914 91.6809 161.014 91.5262 161.061ZM93.8921 154.566C93.7684 154.396 93.7065 154.242 93.7065 154.102C93.7065 153.87 93.8148 153.669 94.0313 153.499C94.2478 153.329 94.472 153.244 94.7039 153.244C94.8586 153.244 94.9977 153.298 95.1214 153.406C95.2606 153.499 95.3843 153.623 95.4926 153.778C95.6163 153.932 95.7245 154.095 95.8173 154.265C95.9255 154.419 96.0183 154.566 96.0956 154.705C96.4513 154.396 96.8533 154.133 97.3018 153.917C97.7502 153.7 98.2527 153.592 98.8094 153.592C99.6135 153.592 100.286 153.723 100.827 153.986C101.384 154.234 101.832 154.566 102.173 154.984C102.528 155.401 102.791 155.881 102.961 156.422C103.131 156.948 103.232 157.489 103.263 158.045C103.263 158.37 103.216 158.718 103.124 159.089C103.031 159.46 102.884 159.824 102.683 160.179C102.497 160.535 102.258 160.868 101.964 161.177C101.67 161.471 101.322 161.718 100.92 161.919C101.415 162.398 101.863 163.001 102.265 163.728C102.683 164.44 103 165.236 103.216 166.117C103.216 166.148 103.216 166.179 103.216 166.21C103.232 166.226 103.24 166.249 103.24 166.28C103.24 166.527 103.131 166.713 102.915 166.836C102.714 166.975 102.482 167.045 102.219 167.045C102.08 167.045 101.948 167.014 101.825 166.952C101.701 166.89 101.624 166.798 101.593 166.674C101.33 165.7 100.99 164.857 100.572 164.146C100.155 163.434 99.5903 162.824 98.879 162.313C98.1368 162.313 97.5028 162.174 96.977 161.896C96.977 162.824 96.9616 163.705 96.9306 164.54C96.8997 165.375 96.8456 166.071 96.7683 166.628C96.7373 166.86 96.6368 167.03 96.4667 167.138C96.3121 167.262 96.1497 167.323 95.9796 167.323C95.7168 167.323 95.4771 167.254 95.2606 167.115C95.0596 166.975 94.9591 166.782 94.9591 166.535C94.9591 165.885 94.9823 165.128 95.0287 164.262C95.0905 163.396 95.1214 162.491 95.1214 161.548C95.1214 160.651 95.1137 159.762 95.0982 158.88C95.0828 157.999 95.0519 157.21 95.0055 156.515C94.8663 156.221 94.7039 155.904 94.5184 155.564C94.3328 155.223 94.1241 154.891 93.8921 154.566ZM96.7915 156.422C96.8379 156.978 96.8688 157.566 96.8842 158.185C96.9152 158.788 96.9384 159.398 96.9538 160.017C97.2167 160.264 97.5105 160.442 97.8352 160.551C98.1754 160.643 98.5775 160.69 99.0414 160.69C99.5053 160.69 99.8919 160.589 100.201 160.388C100.51 160.187 100.758 159.94 100.943 159.646C101.129 159.352 101.26 159.043 101.338 158.718C101.415 158.378 101.454 158.076 101.454 157.814C101.423 157.535 101.353 157.249 101.245 156.955C101.137 156.662 100.982 156.399 100.781 156.167C100.58 155.935 100.325 155.741 100.016 155.587C99.7218 155.432 99.3661 155.355 98.9486 155.355C98.4074 155.355 97.9667 155.455 97.6265 155.656C97.2863 155.857 97.008 156.113 96.7915 156.422ZM105.536 153.87C106 153.948 106.603 154.002 107.345 154.033C108.087 154.064 108.853 154.079 109.641 154.079C110.43 154.079 111.18 154.056 111.891 154.01C112.603 153.948 113.175 153.87 113.608 153.778C113.809 153.577 114.01 153.43 114.211 153.337C114.412 153.244 114.644 153.159 114.907 153.082C115.092 153.128 115.255 153.275 115.394 153.522C115.548 153.754 115.626 154.002 115.626 154.265C115.626 154.528 115.579 154.752 115.487 154.937C115.394 155.107 115.231 155.216 114.999 155.262C114.458 155.386 113.855 155.494 113.19 155.587C112.525 155.68 111.845 155.741 111.149 155.772V158.301C111.149 159.074 111.149 159.893 111.149 160.759C111.149 161.625 111.141 162.445 111.126 163.218C111.126 163.991 111.118 164.679 111.103 165.282C111.087 165.87 111.072 166.272 111.056 166.488C111.01 166.674 110.886 166.805 110.685 166.883C110.5 166.975 110.299 167.022 110.082 167.022C109.866 167.022 109.665 166.968 109.479 166.86C109.294 166.751 109.201 166.612 109.201 166.442C109.201 166.318 109.201 166.125 109.201 165.862C109.201 165.584 109.208 165.22 109.224 164.772L109.363 158.44C109.379 157.899 109.386 157.411 109.386 156.978C109.386 156.53 109.386 156.143 109.386 155.819C108.69 155.819 108.056 155.819 107.484 155.819C106.928 155.803 106.441 155.765 106.023 155.703C105.621 155.625 105.304 155.509 105.072 155.355C104.856 155.2 104.747 154.968 104.747 154.659C104.747 154.443 104.817 154.257 104.956 154.102C105.095 153.948 105.289 153.87 105.536 153.87ZM121.216 165.189H121.471C122.074 165.189 122.584 165.066 123.002 164.818C123.435 164.555 123.783 164.2 124.045 163.751C124.308 163.288 124.502 162.739 124.625 162.105C124.749 161.471 124.811 160.775 124.811 160.017C124.811 159.259 124.757 158.463 124.649 157.628C124.54 156.777 124.401 155.912 124.231 155.03C124.216 154.999 124.208 154.945 124.208 154.868C124.208 154.636 124.316 154.458 124.533 154.334C124.749 154.211 124.981 154.149 125.228 154.149C125.414 154.149 125.584 154.187 125.739 154.265C125.909 154.342 126.009 154.458 126.04 154.613C126.458 156.592 126.666 158.401 126.666 160.04C126.666 161.061 126.566 161.996 126.365 162.847C126.179 163.682 125.87 164.401 125.437 165.004C125.02 165.592 124.471 166.048 123.79 166.372C123.11 166.697 122.283 166.86 121.308 166.86C119.948 166.86 118.873 166.311 118.084 165.213C117.296 164.099 116.901 162.507 116.901 160.435C116.901 159.507 116.994 158.533 117.18 157.512C117.381 156.491 117.69 155.448 118.108 154.381C118.169 154.211 118.285 154.095 118.455 154.033C118.641 153.955 118.834 153.917 119.035 153.917C119.345 153.917 119.608 153.994 119.824 154.149C120.056 154.303 120.172 154.497 120.172 154.729C120.172 154.976 120.079 155.177 119.894 155.332C119.723 155.486 119.592 155.649 119.499 155.819C119.236 156.685 119.043 157.504 118.919 158.277C118.811 159.035 118.757 159.746 118.757 160.411C118.757 161.865 118.981 163.017 119.43 163.867C119.894 164.702 120.489 165.143 121.216 165.189Z" fill="#00170A"/>
<path d="M28.543 180.54C28.1176 180.54 27.7433 180.467 27.4202 180.322C27.097 180.176 26.8439 179.969 26.6608 179.7C26.4831 179.431 26.3889 179.116 26.3781 178.755H26.8628C26.8843 179.169 27.0459 179.492 27.3475 179.724C27.649 179.956 28.0476 180.071 28.543 180.071C29.0061 180.071 29.3724 179.977 29.6416 179.789C29.9109 179.595 30.0455 179.334 30.0455 179.005C30.0455 178.709 29.919 178.469 29.6659 178.286C29.4181 178.098 29.0115 177.942 28.4461 177.818C27.746 177.656 27.2397 177.449 26.9274 177.196C26.6204 176.937 26.4669 176.598 26.4669 176.178C26.4669 175.72 26.6393 175.357 26.9839 175.087C27.334 174.813 27.8079 174.675 28.4057 174.675C29.0304 174.675 29.5205 174.826 29.8759 175.128C30.2367 175.429 30.4279 175.852 30.4494 176.396H29.9647C29.9432 175.997 29.7951 175.69 29.5205 175.475C29.2512 175.254 28.8796 175.144 28.4057 175.144C27.9533 175.144 27.5979 175.238 27.3394 175.427C27.0863 175.615 26.9597 175.865 26.9597 176.178C26.9597 176.463 27.0809 176.7 27.3232 176.889C27.5709 177.072 27.9856 177.228 28.5672 177.357C29.2727 177.519 29.7789 177.731 30.0859 177.995C30.3929 178.254 30.5464 178.588 30.5464 178.997C30.5464 179.471 30.366 179.848 30.0051 180.128C29.6443 180.403 29.1569 180.54 28.543 180.54ZM33.2151 180.5C32.7304 180.5 32.3454 180.389 32.0599 180.168C31.7799 179.942 31.6399 179.638 31.6399 179.256C31.6399 178.884 31.7691 178.59 32.0276 178.375C32.2861 178.154 32.6308 178.044 33.0616 178.044H34.9034V177.745C34.9034 177.395 34.7849 177.115 34.548 176.905C34.3164 176.695 34.0067 176.59 33.619 176.59C33.3066 176.59 33.0347 176.665 32.8031 176.816C32.5715 176.961 32.4127 177.161 32.3265 177.414H31.8499C31.9522 177.026 32.1596 176.719 32.4719 176.493C32.7896 176.267 33.1693 176.154 33.6109 176.154C33.9556 176.154 34.2599 176.221 34.5237 176.356C34.793 176.485 35.0003 176.668 35.1457 176.905C35.2965 177.142 35.3719 177.414 35.3719 177.721V180.435H34.9842L34.9357 179.716C34.7526 179.969 34.513 180.163 34.2168 180.298C33.9206 180.432 33.5867 180.5 33.2151 180.5ZM32.1084 179.247C32.1084 179.501 32.208 179.703 32.4073 179.853C32.6119 180.004 32.8866 180.08 33.2312 180.08C33.549 180.08 33.8344 180.018 34.0875 179.894C34.346 179.77 34.548 179.598 34.6934 179.377C34.8388 179.156 34.9115 178.908 34.9115 178.634V178.456H33.0778C32.7923 178.456 32.5581 178.529 32.375 178.674C32.1973 178.819 32.1084 179.011 32.1084 179.247ZM36.9473 176.259H37.3432L37.3836 177.066C37.5451 176.77 37.7632 176.544 38.0379 176.388C38.3179 176.232 38.6276 176.154 38.9669 176.154C39.5108 176.154 39.9389 176.331 40.2513 176.687C40.569 177.042 40.7279 177.521 40.7279 178.125V180.435H40.2593V178.165C40.2593 177.686 40.1382 177.306 39.8958 177.026C39.6535 176.746 39.325 176.606 38.9103 176.606C38.6195 176.606 38.361 176.676 38.1348 176.816C37.9086 176.956 37.7309 177.153 37.6017 177.406C37.4778 177.653 37.4159 177.942 37.4159 178.27V180.435H36.9473V176.259ZM43.8661 180.435C43.4191 180.435 43.0798 180.314 42.8482 180.071C42.6167 179.824 42.5009 179.463 42.5009 178.989V176.687H41.5881V176.259H42.1212C42.2774 176.259 42.3851 176.234 42.4443 176.186C42.5036 176.132 42.5413 176.027 42.5574 175.871L42.5978 175.233H42.9694V176.259H44.4154V176.687H42.9694V178.973C42.9694 179.317 43.0421 179.573 43.1875 179.74C43.3383 179.902 43.5699 179.983 43.8822 179.983H44.4719V180.435H43.8661ZM47.2915 180.54C46.8714 180.54 46.4998 180.448 46.1767 180.265C45.8536 180.077 45.6032 179.818 45.4255 179.49C45.2477 179.156 45.1589 178.774 45.1589 178.343C45.1589 177.917 45.2477 177.54 45.4255 177.212C45.6086 176.878 45.8617 176.619 46.1848 176.436C46.5079 176.248 46.8795 176.154 47.2996 176.154C47.7304 176.154 48.1101 176.253 48.4386 176.452C48.7671 176.652 49.0175 176.932 49.1898 177.293C49.3622 177.653 49.4429 178.068 49.4322 178.537H45.6355C45.6786 179.011 45.8482 179.39 46.1444 179.676C46.446 179.956 46.8283 180.096 47.2915 180.096C47.6308 180.096 47.9297 180.02 48.1882 179.869C48.4466 179.719 48.6459 179.509 48.7859 179.239L49.311 179.247C49.1494 179.646 48.8882 179.961 48.5274 180.193C48.172 180.424 47.76 180.54 47.2915 180.54ZM48.9717 178.125C48.9179 177.651 48.7402 177.279 48.4386 177.01C48.137 176.735 47.7573 176.598 47.2996 176.598C46.8364 176.598 46.4541 176.738 46.1525 177.018C45.8509 177.293 45.6786 177.661 45.6355 178.125H48.9717ZM47.4369 174.344H47.9458L47.4369 175.564H46.9926L47.4369 174.344ZM53.162 179.207C52.9358 179.207 52.7527 179.137 52.6127 178.997C52.4726 178.852 52.4026 178.671 52.4026 178.456C52.4026 178.235 52.4726 178.055 52.6127 177.915C52.7527 177.775 52.9358 177.705 53.162 177.705C53.3935 177.705 53.5793 177.775 53.7194 177.915C53.8594 178.055 53.9294 178.235 53.9294 178.456C53.9294 178.671 53.8594 178.852 53.7194 178.997C53.5793 179.137 53.3935 179.207 53.162 179.207ZM57.5467 174.78H59.6955C60.2179 174.78 60.6325 174.915 60.9395 175.184C61.2518 175.448 61.408 175.804 61.408 176.251C61.408 176.557 61.3299 176.821 61.1738 177.042C61.023 177.263 60.8102 177.422 60.5356 177.519C60.8641 177.616 61.1172 177.785 61.2949 178.028C61.478 178.265 61.5696 178.553 61.5696 178.892C61.5696 179.366 61.408 179.743 61.0849 180.023C60.7672 180.298 60.3336 180.435 59.7843 180.435H57.5467V174.78ZM59.7682 179.974C60.1775 179.974 60.4952 179.878 60.7214 179.684C60.953 179.49 61.0687 179.221 61.0687 178.876C61.0687 178.526 60.953 178.257 60.7214 178.068C60.4898 177.874 60.164 177.777 59.7439 177.777H58.0395V179.974H59.7682ZM59.6793 177.325C60.0671 177.325 60.3686 177.233 60.5841 177.05C60.7995 176.867 60.9072 176.611 60.9072 176.283C60.9072 175.96 60.7995 175.707 60.5841 175.523C60.3686 175.335 60.0698 175.241 59.6874 175.241H58.0395V177.325H59.6793ZM62.9249 176.259H63.3935V180.435H62.9249V176.259ZM62.7311 175.071C62.7311 174.953 62.7688 174.853 62.8442 174.772C62.9249 174.691 63.0299 174.651 63.1592 174.651C63.2884 174.651 63.3908 174.691 63.4662 174.772C63.5469 174.853 63.5873 174.953 63.5873 175.071C63.5873 175.195 63.5469 175.297 63.4662 175.378C63.3908 175.459 63.2884 175.499 63.1592 175.499C63.0299 175.499 62.9249 175.459 62.8442 175.378C62.7688 175.297 62.7311 175.195 62.7311 175.071ZM66.8886 180.54C66.4632 180.54 66.0835 180.448 65.7496 180.265C65.4157 180.077 65.1545 179.816 64.966 179.482C64.7829 179.148 64.6914 178.768 64.6914 178.343C64.6914 177.917 64.7829 177.54 64.966 177.212C65.1545 176.878 65.4157 176.619 65.7496 176.436C66.0835 176.248 66.4632 176.154 66.8886 176.154C67.3141 176.154 67.691 176.248 68.0195 176.436C68.3534 176.619 68.6119 176.878 68.795 177.212C68.9835 177.54 69.0778 177.917 69.0778 178.343C69.0778 178.768 68.9835 179.148 68.795 179.482C68.6119 179.816 68.3534 180.077 68.0195 180.265C67.691 180.448 67.3141 180.54 66.8886 180.54ZM65.1599 178.343C65.1599 178.682 65.2326 178.984 65.378 179.247C65.5234 179.511 65.7254 179.719 65.9839 179.869C66.2477 180.015 66.5493 180.088 66.8886 180.088C67.2225 180.088 67.5187 180.015 67.7772 179.869C68.0411 179.719 68.2457 179.511 68.3911 179.247C68.5365 178.984 68.6092 178.682 68.6092 178.343C68.6092 178.003 68.5365 177.702 68.3911 177.438C68.2457 177.174 68.0411 176.969 67.7772 176.824C67.5187 176.679 67.2225 176.606 66.8886 176.606C66.5493 176.606 66.2477 176.679 65.9839 176.824C65.7254 176.969 65.5234 177.174 65.378 177.438C65.2326 177.702 65.1599 178.003 65.1599 178.343ZM72.8286 179.207C72.6024 179.207 72.4193 179.137 72.2793 178.997C72.1392 178.852 72.0692 178.671 72.0692 178.456C72.0692 178.235 72.1392 178.055 72.2793 177.915C72.4193 177.775 72.6024 177.705 72.8286 177.705C73.0601 177.705 73.2459 177.775 73.386 177.915C73.526 178.055 73.596 178.235 73.596 178.456C73.596 178.671 73.526 178.852 73.386 178.997C73.2459 179.137 73.0601 179.207 72.8286 179.207ZM78.8968 180.54C78.4713 180.54 78.097 180.467 77.7739 180.322C77.4508 180.176 77.1977 179.969 77.0146 179.7C76.8369 179.431 76.7426 179.116 76.7318 178.755H77.2165C77.2381 179.169 77.3996 179.492 77.7012 179.724C78.0028 179.956 78.4013 180.071 78.8968 180.071C79.3599 180.071 79.7261 179.977 79.9954 179.789C80.2647 179.595 80.3993 179.334 80.3993 179.005C80.3993 178.709 80.2727 178.469 80.0196 178.286C79.7719 178.098 79.3653 177.942 78.7998 177.818C78.0997 177.656 77.5935 177.449 77.2812 177.196C76.9742 176.937 76.8207 176.598 76.8207 176.178C76.8207 175.72 76.993 175.357 77.3377 175.087C77.6878 174.813 78.1617 174.675 78.7594 174.675C79.3841 174.675 79.8742 174.826 80.2296 175.128C80.5905 175.429 80.7817 175.852 80.8032 176.396H80.3185C80.297 175.997 80.1489 175.69 79.8742 175.475C79.6049 175.254 79.2334 175.144 78.7594 175.144C78.3071 175.144 77.9516 175.238 77.6931 175.427C77.44 175.615 77.3135 175.865 77.3135 176.178C77.3135 176.463 77.4346 176.7 77.677 176.889C77.9247 177.072 78.3394 177.228 78.921 177.357C79.6265 177.519 80.1327 177.731 80.4397 177.995C80.7466 178.254 80.9001 178.588 80.9001 178.997C80.9001 179.471 80.7197 179.848 80.3589 180.128C79.9981 180.403 79.5107 180.54 78.8968 180.54ZM83.5689 180.5C83.0842 180.5 82.6991 180.389 82.4137 180.168C82.1336 179.942 81.9936 179.638 81.9936 179.256C81.9936 178.884 82.1229 178.59 82.3814 178.375C82.6399 178.154 82.9845 178.044 83.4154 178.044H85.2572V177.745C85.2572 177.395 85.1387 177.115 84.9017 176.905C84.6702 176.695 84.3605 176.59 83.9728 176.59C83.6604 176.59 83.3884 176.665 83.1569 176.816C82.9253 176.961 82.7664 177.161 82.6803 177.414H82.2037C82.306 177.026 82.5133 176.719 82.8257 176.493C83.1434 176.267 83.5231 176.154 83.9647 176.154C84.3093 176.154 84.6136 176.221 84.8775 176.356C85.1468 176.485 85.3541 176.668 85.4995 176.905C85.6503 177.142 85.7257 177.414 85.7257 177.721V180.435H85.3379L85.2895 179.716C85.1064 179.969 84.8667 180.163 84.5705 180.298C84.2743 180.432 83.9404 180.5 83.5689 180.5ZM82.4622 179.247C82.4622 179.501 82.5618 179.703 82.761 179.853C82.9657 180.004 83.2403 180.08 83.585 180.08C83.9027 180.08 84.1882 180.018 84.4413 179.894C84.6998 179.77 84.9017 179.598 85.0471 179.377C85.1925 179.156 85.2652 178.908 85.2652 178.634V178.456H83.4315C83.1461 178.456 82.9118 178.529 82.7287 178.674C82.551 178.819 82.4622 179.011 82.4622 179.247ZM87.3011 176.259H87.6969L87.7373 177.066C87.8989 176.77 88.117 176.544 88.3916 176.388C88.6717 176.232 88.9813 176.154 89.3206 176.154C89.8645 176.154 90.2927 176.331 90.605 176.687C90.9228 177.042 91.0816 177.521 91.0816 178.125V180.435H90.6131V178.165C90.6131 177.686 90.4919 177.306 90.2496 177.026C90.0073 176.746 89.6787 176.606 89.2641 176.606C88.9733 176.606 88.7148 176.676 88.4886 176.816C88.2624 176.956 88.0847 177.153 87.9554 177.406C87.8316 177.653 87.7696 177.942 87.7696 178.27V180.435H87.3011V176.259ZM94.0955 180.54C93.5677 180.54 93.1449 180.419 92.8272 180.176C92.5148 179.929 92.3506 179.595 92.3344 179.175H92.7949C92.8218 179.471 92.9457 179.703 93.1665 179.869C93.3927 180.031 93.705 180.112 94.1035 180.112C94.4697 180.112 94.7579 180.047 94.9679 179.918C95.1779 179.783 95.2829 179.6 95.2829 179.369C95.2829 179.148 95.1779 178.97 94.9679 178.835C94.7632 178.695 94.4401 178.588 93.9985 178.512C93.4546 178.421 93.0534 178.278 92.7949 178.084C92.5418 177.885 92.4152 177.624 92.4152 177.301C92.4152 176.945 92.5552 176.665 92.8353 176.461C93.1207 176.256 93.5084 176.154 93.9985 176.154C94.494 176.154 94.8871 176.267 95.1779 176.493C95.4741 176.714 95.6384 177.023 95.6707 177.422H95.2021C95.1806 177.147 95.0648 176.937 94.8548 176.792C94.6501 176.646 94.3647 176.574 93.9985 176.574C93.6538 176.574 93.3819 176.641 93.1826 176.776C92.9834 176.905 92.8837 177.083 92.8837 177.309C92.8837 177.513 92.9807 177.68 93.1746 177.81C93.3684 177.933 93.6969 178.038 94.1601 178.125C95.2156 178.324 95.7434 178.741 95.7434 179.377C95.7434 179.727 95.5926 180.009 95.291 180.225C94.9948 180.435 94.5963 180.54 94.0955 180.54ZM101.403 180.54C100.853 180.54 100.361 180.416 99.9244 180.168C99.4936 179.915 99.1543 179.568 98.9066 179.126C98.6642 178.679 98.5431 178.173 98.5431 177.608C98.5431 177.042 98.6642 176.539 98.9066 176.097C99.1489 175.65 99.4855 175.303 99.9163 175.055C100.353 174.802 100.843 174.675 101.387 174.675C102.033 174.675 102.598 174.845 103.083 175.184C103.568 175.523 103.901 175.97 104.085 176.525H103.551C103.374 176.1 103.096 175.769 102.719 175.532C102.348 175.289 101.912 175.168 101.411 175.168C100.948 175.168 100.536 175.27 100.175 175.475C99.8194 175.68 99.542 175.968 99.3428 176.339C99.1435 176.706 99.0439 177.128 99.0439 177.608C99.0439 178.082 99.1435 178.504 99.3428 178.876C99.542 179.247 99.8194 179.536 100.175 179.74C100.536 179.945 100.948 180.047 101.411 180.047C101.842 180.047 102.227 179.958 102.566 179.781C102.905 179.598 103.174 179.347 103.374 179.029C103.578 178.706 103.697 178.34 103.729 177.931H101.225V177.462H104.254C104.26 178.055 104.144 178.585 103.907 179.054C103.67 179.517 103.333 179.88 102.897 180.144C102.466 180.408 101.968 180.54 101.403 180.54ZM105.579 174.457H106.048V180.435H105.579V174.457ZM109.357 180.54C108.824 180.54 108.401 180.362 108.089 180.007C107.777 179.651 107.62 179.172 107.62 178.569V176.259H108.089V178.529C108.089 179.008 108.207 179.387 108.444 179.668C108.687 179.948 109.013 180.088 109.422 180.088C109.707 180.088 109.96 180.018 110.181 179.878C110.402 179.738 110.574 179.541 110.698 179.288C110.822 179.035 110.884 178.744 110.884 178.415V176.259H111.352V180.435H110.965L110.916 179.619C110.755 179.915 110.537 180.144 110.262 180.306C109.993 180.462 109.691 180.54 109.357 180.54ZM114.715 180.435C114.268 180.435 113.928 180.314 113.697 180.071C113.465 179.824 113.35 179.463 113.35 178.989V176.687H112.437V176.259H112.97C113.126 176.259 113.234 176.234 113.293 176.186C113.352 176.132 113.39 176.027 113.406 175.871L113.447 175.233H113.818V176.259H115.264V176.687H113.818V178.973C113.818 179.317 113.891 179.573 114.036 179.74C114.187 179.902 114.419 179.983 114.731 179.983H115.321V180.435H114.715ZM118.14 180.54C117.72 180.54 117.349 180.448 117.025 180.265C116.702 180.077 116.452 179.818 116.274 179.49C116.096 179.156 116.008 178.774 116.008 178.343C116.008 177.917 116.096 177.54 116.274 177.212C116.457 176.878 116.71 176.619 117.033 176.436C117.357 176.248 117.728 176.154 118.148 176.154C118.579 176.154 118.959 176.253 119.287 176.452C119.616 176.652 119.866 176.932 120.039 177.293C120.211 177.653 120.292 178.068 120.281 178.537H116.484C116.527 179.011 116.697 179.39 116.993 179.676C117.295 179.956 117.677 180.096 118.14 180.096C118.479 180.096 118.778 180.02 119.037 179.869C119.295 179.719 119.495 179.509 119.635 179.239L120.16 179.247C119.998 179.646 119.737 179.961 119.376 180.193C119.021 180.424 118.609 180.54 118.14 180.54ZM119.82 178.125C119.767 177.651 119.589 177.279 119.287 177.01C118.986 176.735 118.606 176.598 118.148 176.598C117.685 176.598 117.303 176.738 117.001 177.018C116.7 177.293 116.527 177.661 116.484 178.125H119.82ZM121.562 176.259H121.958L121.998 177.066C122.16 176.77 122.378 176.544 122.652 176.388C122.932 176.232 123.242 176.154 123.581 176.154C124.125 176.154 124.553 176.331 124.866 176.687C125.184 177.042 125.342 177.521 125.342 178.125V180.435H124.874V178.165C124.874 177.686 124.753 177.306 124.51 177.026C124.268 176.746 123.94 176.606 123.525 176.606C123.234 176.606 122.976 176.676 122.749 176.816C122.523 176.956 122.345 177.153 122.216 177.406C122.092 177.653 122.03 177.942 122.03 178.27V180.435H121.562V176.259Z" fill="black"/>
</svg>
