<svg width="164" height="58" viewBox="0 0 164 58" fill="none" xmlns="http://www.w3.org/2000/svg">
<path d="M62.6938 41.2037C62.4082 41.8422 62.0469 42.3714 61.6101 42.7914C61.1733 43.1947 60.7112 43.5223 60.224 43.7743C59.7367 44.0095 59.2411 44.1776 58.7371 44.2784C58.2498 44.3792 57.8046 44.4296 57.4013 44.4296C56.7965 44.4296 56.1496 44.2868 55.4608 44.0011C54.7887 43.6987 54.1671 43.2703 53.5958 42.7158C53.0414 42.1446 52.5793 41.4389 52.2097 40.5989C51.8401 39.7588 51.6553 38.7843 51.6553 37.6754C51.6553 36.8857 51.7813 36.0709 52.0333 35.2308C52.2853 34.3907 52.6549 33.6263 53.1422 32.9374C53.6462 32.2485 54.2679 31.6857 55.0071 31.2489C55.7464 30.7952 56.6033 30.5684 57.5778 30.5684C57.9978 30.5684 58.4262 30.6188 58.8631 30.7196C59.2999 30.8204 59.7115 30.9716 60.098 31.1732C60.5012 31.3581 60.8708 31.5933 61.2069 31.8789C61.5429 32.1645 61.8201 32.4838 62.0385 32.8366C62.1393 33.0382 62.1898 33.2146 62.1898 33.3658C62.1898 33.6179 62.0805 33.8363 61.8621 34.0211C61.6437 34.1891 61.4169 34.2731 61.1817 34.2731C60.9801 34.2731 60.8288 34.1975 60.728 34.0463C60.2912 33.5086 59.804 33.1222 59.2663 32.887C58.7287 32.6518 58.1994 32.5342 57.6786 32.5342C57.0401 32.5342 56.4689 32.6938 55.9648 33.013C55.4776 33.3322 55.0575 33.7439 54.7047 34.2479C54.3687 34.752 54.1083 35.3064 53.9234 35.9113C53.7554 36.5161 53.6714 37.1042 53.6714 37.6754C53.6714 38.4483 53.789 39.1371 54.0243 39.742C54.2595 40.3468 54.5619 40.8593 54.9315 41.2793C55.318 41.6993 55.7464 42.0186 56.2168 42.237C56.6873 42.4554 57.1577 42.5646 57.6282 42.5646C58.5018 42.5646 59.2579 42.3294 59.8964 41.859C60.5516 41.3717 60.9969 40.7837 61.2321 40.0948C61.3497 39.8932 61.5681 39.7924 61.8873 39.7924C62.1057 39.7924 62.299 39.868 62.467 40.0192C62.6518 40.1704 62.7442 40.4224 62.7442 40.7753C62.7442 40.8425 62.7358 40.9097 62.719 40.9769C62.719 41.0441 62.7106 41.1197 62.6938 41.2037ZM64.962 32.887C64.8444 32.7526 64.7856 32.5846 64.7856 32.383C64.7856 32.1309 64.878 31.9125 65.0628 31.7277C65.2476 31.5261 65.4828 31.4253 65.7685 31.4253C66.0205 31.4253 66.2473 31.5261 66.4489 31.7277C66.6673 31.9293 66.8606 32.1813 67.0286 32.4838C67.2134 32.7862 67.3646 33.1138 67.4822 33.4666C67.6166 33.8195 67.7174 34.1471 67.7846 34.4495C67.8686 34.836 67.9274 35.2812 67.961 35.7852C67.9946 36.2893 68.0367 36.8269 68.0871 37.3982L70.4309 37.3226C70.8677 37.3058 71.3045 37.2974 71.7414 37.2974C72.1782 37.2806 72.5898 37.2554 72.9763 37.2218C72.9259 36.5665 72.8839 35.9869 72.8503 35.4828C72.8167 34.962 72.7579 34.4747 72.6738 34.0211C72.6066 33.5507 72.5058 33.0718 72.3714 32.5846C72.2538 32.0973 72.069 31.5429 71.817 30.9212C71.7666 30.8204 71.7414 30.7112 71.7414 30.5936C71.7414 30.308 71.8506 30.0812 72.069 29.9131C72.2874 29.7283 72.531 29.6359 72.7999 29.6359C73.1527 29.6359 73.4383 29.8039 73.6567 30.14C73.892 30.476 74.0684 30.8624 74.186 31.2993C74.3204 31.7193 74.4128 32.1225 74.4632 32.509C74.5304 32.8786 74.5724 33.1054 74.5892 33.1894C74.6396 33.4414 74.6816 33.7775 74.7152 34.1975C74.7656 34.6175 74.7992 35.088 74.816 35.6088C74.8496 36.1297 74.8748 36.6841 74.8916 37.2722C74.9084 37.8434 74.9168 38.4315 74.9168 39.0363C74.9168 39.994 74.9 40.9265 74.8664 41.8338C74.8496 42.741 74.8076 43.5391 74.7404 44.228C74.7068 44.5136 74.5976 44.7152 74.4128 44.8328C74.2448 44.9672 74.0684 45.0344 73.8835 45.0344C73.6483 45.0344 73.4215 44.9672 73.2031 44.8328C72.9847 44.6984 72.8755 44.4968 72.8755 44.228C72.8755 43.4551 72.9007 42.6318 72.9511 41.7582C73.0183 40.8845 73.0519 39.9856 73.0519 39.0615C72.699 39.0951 72.2958 39.1203 71.8422 39.1371C71.4053 39.1371 70.9601 39.1455 70.5065 39.1623L68.1123 39.2379C68.1123 40.0444 68.0871 40.8509 68.0367 41.6573C68.003 42.4638 67.9526 43.2031 67.8854 43.8751C67.8518 44.1608 67.7342 44.3792 67.5326 44.5304C67.331 44.6984 67.1126 44.7824 66.8774 44.7824C66.6421 44.7824 66.4405 44.7152 66.2725 44.5808C66.1045 44.4632 66.0205 44.2784 66.0205 44.0263C66.0205 43.1695 66.0457 42.279 66.0961 41.3549C66.1633 40.4308 66.1969 39.5152 66.1969 38.6079C66.1969 37.9358 66.1717 37.2974 66.1213 36.6925C66.0877 36.0877 66.0037 35.5248 65.8693 35.004L65.5668 34.0463C65.5164 33.8783 65.4324 33.7019 65.3148 33.517C65.214 33.3154 65.0964 33.1054 64.962 32.887ZM85.2245 44.1776C84.9221 44.1944 84.5273 44.2028 84.04 44.2028C83.5528 44.2196 83.0067 44.228 82.4019 44.228C81.797 44.228 81.1586 44.2196 80.4865 44.2028C79.8313 44.186 79.1928 44.1608 78.5712 44.1272C78.5375 44.1272 78.5039 44.1356 78.4703 44.1524C78.4535 44.1524 78.4283 44.1524 78.3947 44.1524C78.1259 44.1524 77.8991 44.0767 77.7143 43.9255C77.5463 43.7743 77.4623 43.5559 77.4623 43.2703C77.4791 42.8334 77.4959 42.3294 77.5127 41.7582C77.5463 41.1701 77.5715 40.5484 77.5883 39.8932C77.6219 39.2379 77.6387 38.5659 77.6387 37.877C77.6555 37.1714 77.6639 36.4825 77.6639 35.8104C77.6639 34.9536 77.6471 34.1555 77.6135 33.4162C77.5799 32.677 77.5631 32.0385 77.5631 31.5009C77.5631 31.2657 77.6555 31.0976 77.8403 30.9968C78.0419 30.896 78.2603 30.8456 78.4955 30.8456C78.7812 30.8456 79.1172 30.8624 79.5036 30.896C79.8901 30.9296 80.3017 30.9464 80.7385 30.9464C81.1082 30.9464 81.4946 30.9464 81.8978 30.9464C82.3011 30.9464 82.6875 30.9464 83.0571 30.9464C83.4436 30.9296 83.7964 30.9212 84.1156 30.9212C84.4517 30.9212 84.7373 30.9212 84.9725 30.9212C85.1741 31.0052 85.3169 31.1396 85.4009 31.3245C85.5017 31.4925 85.5521 31.6689 85.5521 31.8537C85.5521 32.0385 85.4933 32.2149 85.3757 32.383C85.2581 32.5342 85.1237 32.635 84.9725 32.6854C84.5021 32.7022 84.0484 32.7106 83.6116 32.7106C83.1747 32.7106 82.7295 32.7106 82.2759 32.7106C81.839 32.7106 81.3854 32.7022 80.915 32.6854C80.4613 32.6686 79.9825 32.6518 79.4784 32.635C79.4952 33.2902 79.5036 33.9791 79.5036 34.7015C79.5204 35.4072 79.5288 36.1213 79.5288 36.8437C79.5288 37.9022 79.512 38.9271 79.4784 39.9184C79.4616 40.8929 79.4448 41.7413 79.428 42.4638C79.8649 42.4974 80.3605 42.5226 80.915 42.5394C81.4862 42.5394 82.0406 42.5394 82.5783 42.5394C83.1327 42.5394 83.6452 42.5394 84.1156 42.5394C84.6029 42.5226 84.9893 42.4974 85.2749 42.4638C85.4933 42.4974 85.653 42.5982 85.7538 42.7662C85.8714 42.9343 85.9302 43.1191 85.9302 43.3207C85.9302 43.5223 85.863 43.7155 85.7286 43.9003C85.5941 44.0683 85.4261 44.1608 85.2245 44.1776ZM85.2749 38.3307C84.9893 38.3307 84.6617 38.3307 84.292 38.3307C83.9392 38.3307 83.5444 38.3223 83.1075 38.3055L80.8393 38.2298C80.6881 38.2298 80.5621 38.1374 80.4613 37.9526C80.3773 37.7678 80.3353 37.5746 80.3353 37.373C80.3353 37.1546 80.3773 36.9613 80.4613 36.7933C80.5621 36.6085 80.7217 36.5161 80.9402 36.5161C81.7466 36.5497 82.4943 36.5665 83.1831 36.5665C83.872 36.5665 84.5693 36.5665 85.2749 36.5665C85.4765 36.6001 85.6194 36.7009 85.7034 36.8689C85.7874 37.0369 85.8294 37.2218 85.8294 37.4234C85.8294 37.625 85.779 37.8182 85.6782 38.003C85.5773 38.171 85.4429 38.2803 85.2749 38.3307ZM96.0614 38.7843C95.8094 38.8179 95.4986 38.8431 95.129 38.8599C94.7761 38.8767 94.3981 38.8851 93.9949 38.8851C93.5916 38.8851 93.1884 38.8851 92.7852 38.8851C92.3987 38.8683 92.0459 38.8515 91.7267 38.8347C91.5755 38.8347 91.4494 38.7423 91.3486 38.5575C91.2646 38.3559 91.2226 38.1458 91.2226 37.9274C91.2226 37.6922 91.2646 37.4822 91.3486 37.2974C91.4494 37.1126 91.6091 37.0201 91.8275 37.0201C92.2307 37.0201 92.6003 37.0285 92.9364 37.0453C93.2892 37.0622 93.6336 37.0706 93.9697 37.0706C94.2889 37.0706 94.6165 37.0706 94.9525 37.0706C95.2886 37.0537 95.6414 37.0201 96.011 36.9697C96.2127 37.0033 96.3555 37.121 96.4395 37.3226C96.5403 37.5074 96.5907 37.709 96.5907 37.9274C96.5907 38.1458 96.5403 38.3475 96.4395 38.5323C96.3555 38.7003 96.2295 38.7843 96.0614 38.7843ZM95.1542 32.7358C94.7005 32.7526 94.2721 32.7694 93.8689 32.7862C93.4824 32.7862 93.1212 32.7862 92.7852 32.7862C92.4491 32.7862 92.0795 32.7862 91.6763 32.7862C91.2898 32.7694 90.8698 32.7526 90.4162 32.7358C90.433 33.3742 90.4414 34.0463 90.4414 34.752C90.4414 35.4576 90.4414 36.1633 90.4414 36.8689C90.4414 37.5074 90.433 38.1374 90.4162 38.7591C90.4162 39.3807 90.4078 39.9772 90.391 40.5484C90.391 41.1197 90.3742 41.6405 90.3406 42.111C90.3238 42.5814 90.2986 42.9847 90.2649 43.3207C90.2313 43.6063 90.1221 43.8163 89.9373 43.9507C89.7693 44.0851 89.5845 44.1524 89.3829 44.1524C89.0972 44.1524 88.8536 44.0767 88.652 43.9255C88.4504 43.7743 88.3496 43.5559 88.3496 43.2703C88.3664 42.8334 88.3832 42.3294 88.4 41.7582C88.4336 41.1701 88.4588 40.5484 88.4756 39.8932C88.5092 39.2379 88.526 38.5659 88.526 37.877C88.5428 37.1714 88.5512 36.4825 88.5512 35.8104C88.5512 34.9536 88.5344 34.1555 88.5008 33.4162C88.4672 32.677 88.4504 32.0385 88.4504 31.5009C88.4504 31.2657 88.5512 31.0976 88.7528 30.9968C88.9544 30.896 89.1813 30.8456 89.4333 30.8456C89.7189 30.8456 90.0297 30.8624 90.3658 30.896C90.7186 30.9296 91.0882 30.9464 91.4747 30.9464C92.1803 30.9464 92.8524 30.9464 93.4908 30.9464C94.1293 30.9296 94.6837 30.9212 95.1542 30.9212C95.3558 31.0052 95.4986 31.1396 95.5826 31.3245C95.6834 31.4925 95.7338 31.6773 95.7338 31.8789C95.7338 32.0805 95.675 32.2653 95.5574 32.4334C95.4398 32.5846 95.3054 32.6854 95.1542 32.7358ZM109.015 44.228C108.881 43.9927 108.721 43.6567 108.537 43.2199C108.368 42.7662 108.184 42.2538 107.982 41.6825C107.78 41.1113 107.57 40.498 107.352 39.8428C107.134 39.1875 106.924 38.5155 106.722 37.8266L104.63 31.0724C104.597 30.9716 104.58 30.8876 104.58 30.8204C104.58 30.5684 104.689 30.3584 104.907 30.1904C105.126 30.0224 105.353 29.9383 105.588 29.9383C105.773 29.9383 105.941 29.9971 106.092 30.1148C106.243 30.2324 106.361 30.4172 106.445 30.6692C106.596 31.1732 106.806 31.8789 107.075 32.7862C107.344 33.6767 107.638 34.6427 107.957 35.6844C108.293 36.7093 108.637 37.751 108.99 38.8095C109.343 39.8512 109.671 40.7753 109.973 41.5817C110.225 40.8089 110.494 39.9184 110.779 38.9103C111.082 37.9022 111.376 36.8941 111.662 35.8861C111.947 34.8612 112.208 33.8951 112.443 32.9878C112.678 32.0637 112.863 31.2909 112.997 30.6692C113.048 30.4172 113.14 30.2408 113.275 30.14C113.426 30.0392 113.594 29.9887 113.779 29.9887C114.047 29.9887 114.291 30.0812 114.509 30.266C114.728 30.434 114.837 30.6524 114.837 30.9212C114.837 31.1732 114.761 31.5681 114.61 32.1057C114.459 32.6434 114.299 33.2314 114.131 33.8699C113.896 34.7772 113.627 35.76 113.325 36.8185C113.039 37.877 112.745 38.9019 112.443 39.8932C112.14 40.8677 111.846 41.7497 111.561 42.5394C111.292 43.3291 111.065 43.9087 110.88 44.2784C110.796 44.4632 110.679 44.5892 110.527 44.6564C110.393 44.7404 110.259 44.7908 110.124 44.8076C110.04 44.8076 109.931 44.774 109.797 44.7068H109.721C109.587 44.7068 109.452 44.6732 109.318 44.606C109.2 44.5388 109.099 44.4128 109.015 44.228ZM124.792 44.1776C124.489 44.1944 124.095 44.2028 123.607 44.2028C123.12 44.2196 122.574 44.228 121.969 44.228C121.364 44.228 120.726 44.2196 120.054 44.2028C119.399 44.186 118.76 44.1608 118.139 44.1272C118.105 44.1272 118.071 44.1356 118.038 44.1524C118.021 44.1524 117.996 44.1524 117.962 44.1524C117.693 44.1524 117.466 44.0767 117.282 43.9255C117.114 43.7743 117.03 43.5559 117.03 43.2703C117.046 42.8334 117.063 42.3294 117.08 41.7582C117.114 41.1701 117.139 40.5484 117.156 39.8932C117.189 39.2379 117.206 38.5659 117.206 37.877C117.223 37.1714 117.231 36.4825 117.231 35.8104C117.231 34.9536 117.214 34.1555 117.181 33.4162C117.147 32.677 117.13 32.0385 117.13 31.5009C117.13 31.2657 117.223 31.0976 117.408 30.9968C117.609 30.896 117.828 30.8456 118.063 30.8456C118.349 30.8456 118.685 30.8624 119.071 30.896C119.457 30.9296 119.869 30.9464 120.306 30.9464C120.676 30.9464 121.062 30.9464 121.465 30.9464C121.868 30.9464 122.255 30.9464 122.625 30.9464C123.011 30.9296 123.364 30.9212 123.683 30.9212C124.019 30.9212 124.305 30.9212 124.54 30.9212C124.741 31.0052 124.884 31.1396 124.968 31.3245C125.069 31.4925 125.12 31.6689 125.12 31.8537C125.12 32.0385 125.061 32.2149 124.943 32.383C124.825 32.5342 124.691 32.635 124.54 32.6854C124.069 32.7022 123.616 32.7106 123.179 32.7106C122.742 32.7106 122.297 32.7106 121.843 32.7106C121.406 32.7106 120.953 32.7022 120.482 32.6854C120.029 32.6686 119.55 32.6518 119.046 32.635C119.063 33.2902 119.071 33.9791 119.071 34.7015C119.088 35.4072 119.096 36.1213 119.096 36.8437C119.096 37.9022 119.079 38.9271 119.046 39.9184C119.029 40.8929 119.012 41.7413 118.995 42.4638C119.432 42.4974 119.928 42.5226 120.482 42.5394C121.054 42.5394 121.608 42.5394 122.146 42.5394C122.7 42.5394 123.213 42.5394 123.683 42.5394C124.17 42.5226 124.557 42.4974 124.842 42.4638C125.061 42.4974 125.22 42.5982 125.321 42.7662C125.439 42.9343 125.498 43.1191 125.498 43.3207C125.498 43.5223 125.43 43.7155 125.296 43.9003C125.162 44.0683 124.994 44.1608 124.792 44.1776ZM124.842 38.3307C124.557 38.3307 124.229 38.3307 123.859 38.3307C123.507 38.3307 123.112 38.3223 122.675 38.3055L120.407 38.2298C120.255 38.2298 120.129 38.1374 120.029 37.9526C119.945 37.7678 119.903 37.5746 119.903 37.373C119.903 37.1546 119.945 36.9613 120.029 36.7933C120.129 36.6085 120.289 36.5161 120.508 36.5161C121.314 36.5497 122.062 36.5665 122.751 36.5665C123.439 36.5665 124.137 36.5665 124.842 36.5665C125.044 36.6001 125.187 36.7009 125.271 36.8689C125.355 37.0369 125.397 37.2218 125.397 37.4234C125.397 37.625 125.346 37.8182 125.246 38.003C125.145 38.171 125.01 38.2803 124.842 38.3307ZM127.413 31.2741C127.278 31.0892 127.211 30.9212 127.211 30.77C127.211 30.518 127.329 30.2996 127.564 30.1148C127.799 29.9299 128.043 29.8375 128.295 29.8375C128.463 29.8375 128.614 29.8963 128.749 30.0139C128.9 30.1148 129.034 30.2492 129.152 30.4172C129.286 30.5852 129.404 30.7616 129.505 30.9464C129.622 31.1144 129.723 31.2741 129.807 31.4253C130.194 31.0892 130.63 30.8036 131.118 30.5684C131.605 30.3332 132.151 30.2156 132.756 30.2156C133.629 30.2156 134.36 30.3584 134.948 30.644C135.553 30.9128 136.04 31.2741 136.41 31.7277C136.797 32.1813 137.082 32.7022 137.267 33.2902C137.452 33.8615 137.561 34.4495 137.595 35.0544C137.595 35.4072 137.544 35.7852 137.443 36.1885C137.343 36.5917 137.183 36.9865 136.965 37.373C136.763 37.7594 136.502 38.1206 136.183 38.4567C135.864 38.7759 135.486 39.0447 135.049 39.2631C135.587 39.784 136.074 40.4392 136.511 41.2289C136.965 42.0018 137.309 42.867 137.544 43.8247C137.544 43.8583 137.544 43.8919 137.544 43.9255C137.561 43.9423 137.569 43.9675 137.569 44.0011C137.569 44.27 137.452 44.4716 137.217 44.606C136.998 44.7572 136.746 44.8328 136.46 44.8328C136.309 44.8328 136.166 44.7992 136.032 44.732C135.898 44.6648 135.814 44.564 135.78 44.4296C135.494 43.3711 135.125 42.4554 134.671 41.6825C134.217 40.9097 133.604 40.246 132.831 39.6916C132.025 39.6916 131.336 39.5404 130.765 39.2379C130.765 40.246 130.748 41.2037 130.714 42.111C130.681 43.0183 130.622 43.7743 130.538 44.3792C130.504 44.6312 130.395 44.816 130.21 44.9336C130.042 45.068 129.866 45.1352 129.681 45.1352C129.395 45.1352 129.135 45.0596 128.9 44.9084C128.681 44.7572 128.572 44.5472 128.572 44.2784C128.572 43.5727 128.597 42.7494 128.648 41.8086C128.715 40.8677 128.749 39.8848 128.749 38.8599C128.749 37.8854 128.74 36.9193 128.723 35.9617C128.707 35.004 128.673 34.1471 128.623 33.391C128.471 33.0718 128.295 32.7274 128.093 32.3577C127.892 31.9881 127.665 31.6269 127.413 31.2741ZM130.563 33.2902C130.614 33.8951 130.647 34.5335 130.664 35.2056C130.698 35.8608 130.723 36.5245 130.74 37.1966C131.025 37.4654 131.344 37.6586 131.697 37.7762C132.067 37.877 132.504 37.9274 133.008 37.9274C133.512 37.9274 133.932 37.8182 134.268 37.5998C134.604 37.3814 134.873 37.1126 135.074 36.7933C135.276 36.4741 135.419 36.1381 135.503 35.7852C135.587 35.4156 135.629 35.088 135.629 34.8024C135.595 34.4999 135.52 34.1891 135.402 33.8699C135.284 33.5507 135.116 33.265 134.898 33.013C134.68 32.761 134.402 32.551 134.066 32.383C133.747 32.2149 133.361 32.1309 132.907 32.1309C132.319 32.1309 131.84 32.2401 131.47 32.4586C131.101 32.677 130.798 32.9542 130.563 33.2902ZM140.064 30.518C140.568 30.602 141.224 30.6608 142.03 30.6944C142.837 30.728 143.668 30.7448 144.525 30.7448C145.382 30.7448 146.197 30.7196 146.97 30.6692C147.743 30.602 148.364 30.518 148.835 30.4172C149.053 30.1988 149.272 30.0392 149.49 29.9383C149.708 29.8375 149.96 29.7451 150.246 29.6611C150.448 29.7115 150.624 29.8711 150.775 30.14C150.943 30.392 151.027 30.6608 151.027 30.9464C151.027 31.2321 150.977 31.4757 150.876 31.6773C150.775 31.8621 150.599 31.9797 150.347 32.0301C149.759 32.1645 149.104 32.2821 148.381 32.383C147.659 32.4838 146.919 32.551 146.163 32.5846V35.3316C146.163 36.1717 146.163 37.0622 146.163 38.003C146.163 38.9439 146.155 39.8344 146.138 40.6745C146.138 41.5145 146.13 42.2622 146.113 42.9174C146.096 43.5559 146.079 43.9927 146.063 44.228C146.012 44.4296 145.878 44.5724 145.659 44.6564C145.458 44.7572 145.239 44.8076 145.004 44.8076C144.769 44.8076 144.55 44.7488 144.349 44.6312C144.147 44.5136 144.046 44.3624 144.046 44.1776C144.046 44.0431 144.046 43.8331 144.046 43.5475C144.046 43.2451 144.055 42.8502 144.072 42.363L144.223 35.4828C144.24 34.8948 144.248 34.3655 144.248 33.8951C144.248 33.4078 144.248 32.9878 144.248 32.635C143.492 32.635 142.803 32.635 142.181 32.635C141.577 32.6182 141.047 32.5762 140.594 32.509C140.157 32.425 139.812 32.2989 139.56 32.1309C139.325 31.9629 139.208 31.7109 139.208 31.3749C139.208 31.1396 139.283 30.938 139.434 30.77C139.586 30.602 139.796 30.518 140.064 30.518ZM157.101 42.8166H157.378C158.034 42.8166 158.588 42.6822 159.042 42.4134C159.512 42.1278 159.89 41.7413 160.176 41.2541C160.461 40.7501 160.671 40.1536 160.806 39.4648C160.94 38.7759 161.007 38.0198 161.007 37.1966C161.007 36.3733 160.949 35.508 160.831 34.6007C160.713 33.6767 160.562 32.7358 160.377 31.7781C160.361 31.7445 160.352 31.6857 160.352 31.6017C160.352 31.3497 160.47 31.1564 160.705 31.022C160.94 30.8876 161.192 30.8204 161.461 30.8204C161.663 30.8204 161.847 30.8624 162.015 30.9464C162.2 31.0304 162.309 31.1564 162.343 31.3245C162.797 33.475 163.024 35.4408 163.024 37.2218C163.024 38.3307 162.914 39.3471 162.696 40.2712C162.494 41.1785 162.158 41.9598 161.688 42.615C161.234 43.2535 160.638 43.7491 159.898 44.102C159.159 44.4548 158.26 44.6312 157.202 44.6312C155.723 44.6312 154.556 44.0347 153.699 42.8418C152.842 41.6321 152.413 39.9016 152.413 37.6502C152.413 36.6421 152.514 35.5836 152.716 34.4747C152.934 33.3658 153.27 32.2317 153.724 31.0724C153.791 30.8876 153.917 30.7616 154.102 30.6944C154.304 30.6104 154.514 30.5684 154.732 30.5684C155.068 30.5684 155.354 30.6524 155.589 30.8204C155.841 30.9884 155.967 31.1985 155.967 31.4505C155.967 31.7193 155.866 31.9377 155.665 32.1057C155.48 32.2737 155.337 32.4502 155.236 32.635C154.95 33.5759 154.74 34.4663 154.606 35.3064C154.488 36.1297 154.43 36.9025 154.43 37.625C154.43 39.2043 154.673 40.456 155.16 41.3801C155.665 42.2874 156.311 42.7662 157.101 42.8166Z" fill="#00170A"/>
<path d="M23.584 0.0201984C22.4469 0.135179 21.6197 0.630236 21.1151 1.49259C21.0352 1.62993 20.965 1.74172 20.9586 1.74172C20.9554 1.74172 20.8276 1.64909 20.6807 1.53731C19.7417 0.831453 18.4514 0.460959 17.2568 0.563164C16.5063 0.627042 15.8803 0.805901 15.1488 1.17001C14.5931 1.44468 14.2003 1.72255 13.7499 2.15693C13.1239 2.75738 12.6576 3.4824 12.4021 4.23936C12.1274 5.0602 12.1306 5.93852 12.4149 6.78491C12.7183 7.69198 13.2357 8.2605 14.0949 8.63419C14.2545 8.70445 15.6184 9.18354 15.6567 9.18354C15.6567 9.18354 15.6599 9.8351 15.6599 10.6272C15.6631 13.6199 15.8803 16.0089 16.3466 18.1584C16.4328 18.5545 16.5318 19.0847 16.5701 19.3402C16.6532 19.9151 16.6755 19.9886 16.8225 20.1482C17.2377 20.6114 17.9787 20.4102 18.1032 19.8001C18.1352 19.6468 18.132 19.5446 18.0745 19.1358C18.0361 18.8707 17.9499 18.4044 17.8796 18.101C17.4708 16.3092 17.2664 14.4279 17.177 11.5215C17.1482 10.6527 17.1482 10.2854 17.1834 9.76483C17.2472 8.76194 17.2409 8.62141 17.1387 8.44575C16.9247 8.08164 16.634 7.91875 15.5161 7.53867C14.3983 7.1554 14.1619 7.00529 13.9479 6.55175C13.7755 6.18445 13.718 5.87464 13.7339 5.40194C13.7467 5.03464 13.7627 4.94521 13.8521 4.68012C14.0949 3.97107 14.673 3.24286 15.3564 2.78932C16.3721 2.1186 17.4772 1.911 18.5536 2.18248C19.4287 2.40605 20.01 2.81807 20.4156 3.50795C20.5114 3.66765 20.636 3.84651 20.6967 3.904C21.048 4.24255 21.6548 4.14993 21.8688 3.72514C21.9008 3.66126 21.987 3.40894 22.0605 3.16301C22.1339 2.91708 22.2585 2.58491 22.3352 2.42522C22.6418 1.79282 23.1496 1.52134 24.0279 1.52134C24.6156 1.52134 25.0148 1.64909 25.347 1.94932C25.561 2.14096 25.9028 2.65518 26.0561 3.0129C26.2445 3.45046 26.286 3.69001 26.2764 4.26491C26.2605 5.10172 26.2637 5.16559 26.3339 5.3189C26.4617 5.60955 26.7076 5.76286 27.0302 5.76605C27.1931 5.76605 27.2538 5.75008 27.3975 5.66065C27.5636 5.56483 27.5955 5.52012 27.9245 4.97396C28.3557 4.25852 28.5825 3.94871 28.9178 3.61335C29.3777 3.15343 29.761 2.98415 30.3359 2.98096C31.4889 2.98096 32.4822 3.69639 32.6387 4.6386C32.7313 5.20073 32.4982 5.98962 31.9776 6.87434C31.3707 7.90917 30.4764 9.07495 29.7323 9.79997C29.3809 10.1417 29.3426 10.1928 29.2947 10.3589C29.2148 10.6272 29.2532 11.068 29.5215 12.9524C29.579 13.3835 29.662 13.9648 29.6971 14.2459C29.8089 15.0923 30.0772 16.6765 30.1762 17.0565C30.272 17.4462 30.3551 17.6027 30.5531 17.7816C30.7894 17.9956 31.211 18.0083 31.3644 17.8071C31.4346 17.7081 31.524 17.3152 31.5272 17.0565C31.5304 16.9511 31.5081 16.686 31.4793 16.4657C31.4474 16.2453 31.3931 15.763 31.358 15.3957C31.3228 15.0252 31.2078 14.0926 31.0993 13.3197C30.9939 12.5467 30.8789 11.6876 30.8437 11.4065L30.7799 10.8987L31.0801 10.5921C32.0127 9.63388 33.2583 7.85168 33.6991 6.8424C34.0153 6.12058 34.1303 5.65426 34.159 5.02826C34.175 4.65776 34.1686 4.54917 34.1079 4.2713C33.9482 3.52712 33.5873 2.92985 32.9837 2.41883C32.0383 1.61396 30.6457 1.27221 29.4895 1.56605C28.9018 1.71297 28.3461 2.04195 27.8415 2.54339L27.5955 2.78293L27.4806 2.49229C27.356 2.18248 27.1069 1.73533 26.8673 1.39997C26.4777 0.857004 25.9922 0.464153 25.4333 0.240579C24.9478 0.0489437 24.1876 -0.0436798 23.584 0.0201984Z" fill="#00170A"/>
<path d="M39.1191 20.6083C38.3749 20.6626 38.0587 20.6914 37.7457 20.7329C34.4241 21.1577 31.6166 22.3235 28.691 24.4953C27.5028 25.38 27.0078 25.8016 24.4271 28.1396C18.579 33.4383 16.0016 35.4089 12.2902 37.4275C11.1436 38.0471 9.17297 39.0021 7.98164 39.5099C7.3205 39.791 6.96598 39.9635 6.20582 40.3723C5.55746 40.7204 5.26681 40.8801 4.08187 41.5508C2.89693 42.2216 1.45328 42.8476 0.351378 43.167C0.156549 43.2276 -0.00314682 43.2756 4.70904e-05 43.2819C0.0128227 43.2947 1.84613 44.0038 2.24537 44.1507C2.6478 44.2976 3.06621 44.4062 4.20963 44.6553C6.49966 45.1536 9.06118 45.3676 11.693 45.2781C15.235 45.16 17.6017 44.748 20.3197 43.777C23.1815 42.7518 25.5769 41.4678 27.4326 39.9699C29.4511 38.3378 31.4601 35.8018 33.0411 32.8826C33.5362 31.9659 33.7661 31.4453 34.6317 29.2894C35.625 26.8173 35.906 26.2232 36.5863 25.1916C37.3689 24.0003 38.26 23.0996 39.4034 22.3394C39.6365 22.1829 39.8218 22.0552 39.8122 22.0552C39.7515 22.0552 38.5059 22.6301 37.9533 22.9143C36.8067 23.502 36.0466 23.9715 34.4879 25.0575C33.2679 25.9039 32.8111 26.2584 32.1724 26.8429C32.0158 26.9898 31.6997 27.2581 31.4761 27.4433C30.9906 27.8394 28.6016 29.8739 28.0522 30.3562C26.7363 31.5156 25.8548 32.3715 25.133 33.186C24.9573 33.384 24.9637 33.3744 25.4013 32.7069C25.9155 31.9212 26.6341 30.9822 27.1228 30.4552C28.2566 29.2351 29.5533 27.8649 29.6428 27.7883C29.7418 27.7052 31.0641 26.466 32.5013 25.1118C33.1657 24.4858 33.2743 24.4027 34.6476 23.4861C36.0306 22.563 36.0498 22.5534 37.4902 22.0137C38.6177 21.5953 39.7866 21.2088 40.3168 21.081C40.5628 21.0235 41.0642 20.9181 41.4347 20.8543C42.2012 20.7137 42.2012 20.7105 41.3549 20.6467C40.8502 20.6115 39.4193 20.5828 39.1191 20.6083Z" fill="#00461E"/>
<path d="M26.9822 21.7006C25.8356 21.8603 24.8264 22.1062 23.2198 22.6172C19.023 23.9523 15.679 25.6355 12.8492 27.8329C11.2011 29.1137 10.0353 30.1677 7.52811 32.6461C5.44248 34.7062 5.20613 34.917 3.05982 36.6545C1.95153 37.5488 1.61937 37.8458 1.75032 37.8171C1.79503 37.8075 2.37632 37.6989 3.04385 37.5775C5.57343 37.1144 6.96279 36.7695 9.14423 36.0636C9.90758 35.8177 10.0545 35.7602 10.7731 35.4185C12.8619 34.4252 15.0306 33.154 16.5062 32.0585C17.7199 31.1578 18.6589 30.3337 21.2013 27.9319C24.9349 24.409 25.628 23.8118 27.2186 22.761C27.8638 22.3362 28.1672 22.1541 28.7038 21.8795C28.9241 21.7645 28.988 21.7198 28.9529 21.6974C28.9273 21.6846 28.5696 21.6655 28.1576 21.6559C27.5444 21.6463 27.3368 21.6527 26.9822 21.7006Z" fill="#00461E"/>
<path d="M32.0446 40.615C31.9392 40.631 31.8498 40.6566 31.8434 40.6757C31.837 40.6917 31.7795 40.7141 31.7156 40.7268C31.623 40.746 31.5367 40.8099 31.3355 41.0175C31.1886 41.1644 31.0704 41.2985 31.0704 41.3209C31.0704 41.3401 31.0321 41.4039 30.9874 41.4646C30.9427 41.5253 30.9107 41.5828 30.9235 41.5924C30.9331 41.602 30.9139 41.6626 30.882 41.7265C30.8469 41.7904 30.8213 41.8511 30.8181 41.8671C30.8181 41.8798 30.7926 41.9437 30.767 42.0076C30.7415 42.0715 30.7255 42.129 30.7319 42.1385C30.7415 42.1449 30.7287 42.1992 30.7063 42.2567C30.6265 42.4452 30.5818 43.6365 30.6488 43.7674C30.6648 43.7962 30.6872 43.8952 30.6999 43.9878C30.7127 44.0772 30.7415 44.1922 30.767 44.2433C30.7926 44.2912 30.8149 44.3711 30.8149 44.4222C30.8149 44.5084 31.08 45.0131 31.1886 45.1312C31.4122 45.3804 31.7348 45.5848 31.9456 45.6103C31.9935 45.6199 32.0605 45.6327 32.0925 45.6423C32.1947 45.6742 32.578 45.5624 32.7025 45.4634C32.7664 45.4123 32.8335 45.3708 32.8463 45.3708C32.8846 45.3708 33.1145 45.1504 33.1145 45.1185C33.1145 45.1025 33.1593 45.045 33.2167 44.9907C33.271 44.9364 33.3062 44.8917 33.2934 44.8917C33.2806 44.8917 33.2998 44.8534 33.3349 44.8087C33.3732 44.7607 33.402 44.6937 33.402 44.6553C33.402 44.617 33.418 44.5691 33.4339 44.5531C33.4691 44.518 33.5681 44.2657 33.6447 44.0198C33.6703 43.9335 33.699 43.7611 33.7054 43.6365C33.715 43.5087 33.7278 43.3011 33.7342 43.1702C33.7565 42.8572 33.6767 42.1673 33.6032 42.0331C33.584 41.998 33.5585 41.9118 33.5489 41.8383C33.5074 41.586 33.2966 41.2315 33.0539 41.0015C32.8111 40.7684 32.6386 40.6566 32.4885 40.6342C32.4215 40.6214 32.3352 40.6055 32.3001 40.5991C32.265 40.5927 32.15 40.5991 32.0446 40.615Z" fill="#00170A"/>
<path d="M24.6123 47.718C24.1364 47.8074 23.7563 48.015 23.5934 48.2673C23.2006 48.8933 23.8522 49.5321 25.0083 49.6503C25.9122 49.7429 26.7299 49.4714 26.963 49.0051C27.2217 48.4877 26.8193 47.9831 25.9697 47.7627C25.6344 47.6765 24.9541 47.6541 24.6123 47.718Z" fill="#00170A"/>
<path d="M29.2179 49.8358C28.988 49.8646 28.8794 49.9381 28.8379 50.0882C28.7868 50.2702 28.7963 50.366 28.8698 50.4619C28.956 50.5704 29.1061 50.6471 29.8344 50.9409C30.5147 51.2156 30.6137 51.2731 30.8213 51.4935C31.1279 51.8257 31.262 52.2696 31.163 52.6369C31.1183 52.803 30.8532 53.0617 30.6137 53.1735C30.3134 53.3172 30.0675 53.3683 29.681 53.3651C29.2403 53.3619 28.9401 53.2789 28.5057 53.0362C28.1735 52.8541 28.0234 52.72 27.7104 52.3399C27.2281 51.749 26.9119 51.5222 26.5766 51.5222C26.3658 51.5222 26.2604 51.5925 26.1518 51.8097C26.0528 52.0077 26.0432 52.3079 26.1326 52.5379C26.1645 52.6241 26.2987 52.8349 26.4296 53.0106C26.848 53.5631 26.9822 53.8282 27.0493 54.2435C27.0748 54.4031 27.0748 54.4926 27.0493 54.5948C27.0045 54.7577 26.8449 54.9461 26.7043 55.0036C26.4648 55.1058 26.0336 55.0164 25.6599 54.7928C25.101 54.4542 24.4239 53.4418 24.2993 52.7519C24.2482 52.4644 24.2131 52.4069 24.031 52.3175C23.7595 52.1802 23.5296 52.2153 23.3922 52.4165C23.3156 52.5283 23.2677 52.6752 22.9738 53.627C22.7598 54.3265 22.4564 54.8758 22.0987 55.2176C21.428 55.8564 20.786 55.5689 20.5433 54.5213C20.4538 54.1412 20.4634 53.3012 20.5592 52.8477C20.7445 51.9726 21.1501 51.0911 21.6324 50.513C21.7122 50.4171 21.7729 50.3149 21.7697 50.2894C21.7633 50.2638 21.7218 50.2223 21.6771 50.1968C21.3449 50.0115 20.5113 50.8164 19.9907 51.8225C19.1922 53.3587 19.106 54.9397 19.7576 56.0512C19.8981 56.2908 20.2654 56.6581 20.5049 56.7986C20.9744 57.0765 21.5909 57.1627 22.1434 57.0317C22.9674 56.8337 23.7436 56.2013 24.2737 55.2942C24.344 55.1729 24.4111 55.0866 24.4239 55.1026C24.4366 55.1154 24.5229 55.2336 24.6155 55.3613C24.9477 55.8181 25.4204 56.1662 25.9729 56.3674C26.1869 56.4473 26.2955 56.4664 26.5989 56.476C27.0301 56.4952 27.2569 56.4473 27.605 56.2684C27.9244 56.1055 28.3364 55.6871 28.4929 55.3677C28.6207 55.1058 28.7388 54.6938 28.7388 54.5022C28.7388 54.4351 28.7516 54.3712 28.7708 54.3616C28.7868 54.352 28.857 54.3712 28.9273 54.4063C28.9976 54.4447 29.1796 54.5117 29.3361 54.5596C29.5948 54.6395 29.6587 54.6459 30.1761 54.6459C30.6584 54.6459 30.7702 54.6363 30.9874 54.5756C31.7315 54.368 32.3224 53.9081 32.6163 53.3108C32.8015 52.9339 32.843 52.7295 32.8398 52.2057C32.8398 51.7969 32.8271 51.7107 32.7504 51.4552C32.6131 51.0016 32.4598 50.7206 32.2202 50.4778C31.8753 50.1329 31.6677 50.0435 30.8628 49.9029C30.4572 49.8327 29.5501 49.7975 29.2179 49.8358Z" fill="#00170A"/>
</svg>
